<svg id="Layer_1" data-name="Layer 1" xmlns="http://www.w3.org/2000/svg" viewBox="0 0 720 161.13"><defs><style>.cls-1{fill:#532d80;}</style></defs><title>CUTBA Mobile Header</title><path class="cls-1" d="M89.92,100.11l18.59,22.51v30.57H69V136.61H41.88v88.24H67.41V207.49h40.31v31.35L89.13,260.57H18.59L0,240.41V119.48l17-19.37Z" transform="translate(0 -99.43)"/><path class="cls-1" d="M269.3,99.66v34.82H256.76V260.57l-103.35-.22-17.13-17.13V133.59h-11V99.66h54v127h36.84V133.59H204.47V99.66Z" transform="translate(0 -99.43)"/><path class="cls-1" d="M421.47,99.43v49.16H382.28V135.83H370.64v89.92h11.65v34.82H329.09V135.83h-43V99.43Z" transform="translate(0 -99.43)"/><path class="cls-1" d="M561,161.8,547.89,178l12.32,13.88v50.17l-20.83,18.48H456q-1.46,0-1.46-1.57V134.71H439.84a1.39,1.39,0,0,1-1.57-1.57V102.35q.22-1.57,1.57-1.57h99.55L561,123.17ZM521.8,196.52H493v30H521.8Zm0-61.81H494.15v27.88H521.8Z" transform="translate(0 -99.43)"/><path class="cls-1" d="M665.58,100.44l41.77,126.08H720v34H675.55l-11.53-41H633l-13.1,40.2h-42.1V226.53h12.65l24.86-91.15H601.75V100.44Zm-24.07,85.1h13.21v-.78l-7.39-26.31Z" transform="translate(0 -99.43)"/></svg>