<svg id="Layer_1" data-name="Layer 1" xmlns="http://www.w3.org/2000/svg" viewBox="0 0 720 107.48"><defs><style>.cls-1{fill:#532d80;}</style></defs><title>Drumline Mobile Header</title><path class="cls-1" d="M64.11,127.52,77.6,142v78.34L64.11,233.74H7.41v-83H0v-23.2ZM36.32,211H48.1V150.72H36.32Z" transform="translate(0 -126.26)"/><path class="cls-1" d="M151.58,126.26l13,14.53v41.28l-10.45,7.86v.52l12,20.83h8.08v22.46H146.39L128.15,194h-5.78l.15,39.73H95.24V151.32H88.72V126.26Zm-28.68,43.81h10.9V151.32h-10.9Z" transform="translate(0 -126.26)"/><path class="cls-1" d="M280.69,127.23v23.05h-8.3v83.46L204,233.59l-11.34-11.34V149.69h-7.26V127.23H221.1v84.05h24.39V149.69h-7.71V127.23Z" transform="translate(0 -126.26)"/><path class="cls-1" d="M392.09,126.78v83.38h6.52v23.5l-33.06.07V177.93H365l-18.31,33.8h-.52l-19.79-33.28h-.52v31.72h4.89v23.5H298.33V151.32h-6.52V126.78h38.25l16.16,29.72h.52L363,126.78Z" transform="translate(0 -126.26)"/><path class="cls-1" d="M444.57,127.67v82.42H457V194.82h25.57v38.91H417V151.32h-7.26V127.67Z" transform="translate(0 -126.26)"/><path class="cls-1" d="M528.77,126.56v83.68h7v23.42l-34.1.07V150.43h-8V126.56Z" transform="translate(0 -126.26)"/><path class="cls-1" d="M635.58,127l-.07,106.66H607l-25.5-53.59H581v30.17h5.48v23.42l-33.06.07V150.95h-6.45V127h38.69L608,175.33h.52V150.95h-6.74V127Z" transform="translate(0 -126.26)"/><path class="cls-1" d="M720,127.67v34.76H693v-10.6h-11v17.72h26.76v23.87H682.05v17.19H694V199h26v34.76H654.48V151.32H646.7V127.67Z" transform="translate(0 -126.26)"/></svg>