<?xml version="1.0" encoding="utf-8"?>
<!-- Generator: Adobe Illustrator 21.1.0, SVG Export Plug-In . SVG Version: 6.00 Build 0)  -->
<svg version="1.1" id="Layer_1" xmlns="http://www.w3.org/2000/svg" xmlns:xlink="http://www.w3.org/1999/xlink" x="0px" y="0px"
	 viewBox="0 0 48 48" style="enable-background:new 0 0 48 48;" xml:space="preserve">
<style type="text/css">
	.st0{fill:none;}
	.st1{fill:#F66733;}
</style>
<path class="st0" d="M0,0h48v48H0V0z"/>
<path class="st1" d="M40,4H16c-2.2,0-4,1.8-4,4v24c0,2.2,1.8,4,4,4h24c2.2,0,4-1.8,4-4V8C44,5.8,42.2,4,40,4z M23,19
	c0,1.7-1.3,3-3,3h-2v4h-3V14h5c1.7,0,3,1.3,3,3V19z M33,23c0,1.7-1.3,3-3,3h-5V14h5c1.7,0,3,1.3,3,3V23z M41,17h-3v2h3v3h-3v4h-3V14
	h6V17z M18,19h2v-2h-2V19z M8,12H4v28c0,2.2,1.8,4,4,4h28v-4H8V12z M28,23h2v-6h-2V23z"/>
</svg>
