<svg xmlns="http://www.w3.org/2000/svg" viewBox="0 0 169.6 94.44"><title>Asset 1</title><g id="Layer_2" data-name="Layer 2"><g id="Layer_1-2" data-name="Layer 1"><path d="M14.6,10.84l10.1,32.3-2.2,7.5H12.3L0,10.84Zm19.9,0-8.1,26.7-8.5-26.7H34.5Z"/><path d="M68.7,10.84H81.3v15.1L68.7,10.84Zm0,39.8,12.6-15.1v15.1Zm-1.2,0c-5.3-.4-9.2-2.3-11.9-5.7s-4-8.1-4-14.2,1.3-10.8,4-14.2,6.7-5.3,11.9-5.7v39.8Z"/><polygon points="38.9 10.74 45.8 10.74 45.8 94.44 38.9 94.44 38.9 10.74"/><path d="M16.9,94.44H2.9V54.64H16.8v39.8ZM18,54.64H31.8v15.3L18,54.64Zm8.6,27.3-8.7-8.2,8.7-8.2v16.4Z"/><path d="M69,94.44V54.64a1.7,1.7,0,0,0,.7-.1h1.1c4.1,0,7.2.8,9.1,2.5s3,4.2,3,7.6-.9,5.8-2.8,7.5-4.6,2.5-8.3,2.5c-.4,0-1.1,0-2.2-.1h-.1l15.8,19.9Zm-17.5,0V54.64H65.7v39.8Z"/><path d="M118.9,54.64v18.8l-9.5-18.8h9.5ZM94.8,94.44V54.64H109v39.8ZM85,54.64h9.4L85,73.44V54.64Z"/><polygon points="121.5 94.44 121.5 54.64 135.6 54.64 135.6 71.34 139.2 71.34 139.2 54.64 153.4 54.64 153.4 94.44 139.2 94.44 139.2 74.94 135.6 74.94 135.6 94.44 121.5 94.44"/><path d="M39,7.84h6.9c3.4-10.4-10.6-10.5-6.9,0Z"/><path d="M162.7,58.14h-1.5v2.8h1.5a4.18,4.18,0,0,0,1.8-.3,1.46,1.46,0,0,0,0-2.2,6.62,6.62,0,0,0-1.8-.3Zm.2-.8a5.51,5.51,0,0,1,2.5.5,2,2,0,0,1,.8,1.7,2.39,2.39,0,0,1-.5,1.4,2.35,2.35,0,0,1-1.4.7l1.8,3.6h-1.4l-1.7-3.5h-1.9v3.5h-1.2v-7.9Zm5.9,4.2a6.87,6.87,0,0,0-.5-2.4,5.33,5.33,0,0,0-1.3-2,6.25,6.25,0,0,0-2-1.3,6,6,0,0,0-2.4-.5,5.87,5.87,0,0,0-2.3.4,6.25,6.25,0,0,0-2,1.3,6.61,6.61,0,0,0-1.4,2,6.35,6.35,0,0,0-.5,2.3,4.56,4.56,0,0,0,.5,2.3,8.58,8.58,0,0,0,1.3,2,9,9,0,0,0,2,1.4,5.93,5.93,0,0,0,2.3.5,6.87,6.87,0,0,0,2.4-.5,5.58,5.58,0,0,0,2-1.4,5,5,0,0,0,1.3-1.9,3.34,3.34,0,0,0,.6-2.2Zm-6.1-7a8.08,8.08,0,0,1,2.7.5,5.41,5.41,0,0,1,2.2,1.5,10.71,10.71,0,0,1,1.5,2.2,7.63,7.63,0,0,1,.5,2.7,8.57,8.57,0,0,1-.5,2.7,6.17,6.17,0,0,1-1.5,2.2,7,7,0,0,1-4.9,2,7.51,7.51,0,0,1-2.6-.5,8.55,8.55,0,0,1-2.2-1.5,6.17,6.17,0,0,1-1.5-2.2,5.75,5.75,0,0,1-.5-2.6,7.51,7.51,0,0,1,.5-2.6,9.13,9.13,0,0,1,1.5-2.3,8.55,8.55,0,0,1,2.2-1.5,5.83,5.83,0,0,1,2.6-.6Z"/></g></g></svg>