<svg xmlns="http://www.w3.org/2000/svg" viewBox="0 0 238.71 228.53"><g data-name="Layer 2"><path d="M18.63 187.44c0 .13.67.34.72.48.13.43 0 .6-.24.72 0 0 .4 1.16.48 1.44-.35-.25-.53-.11-1-.24-.06-.32-.45-.54-.48-.72-.11-.68.44-1.26.52-1.68zm-2.16 0c.34.1 1.32 1.35 0 1-.33-.14-.67-1.2 0-1zM137.91 186c0 .08-.18.83-.24 1.2 1.63 1.28 4.21 2.9 2.64-1-1.02-.1-1.49-.07-2.4-.2zm6.24-1.44a23 23 0 0 0-2.4 2.88l.48-.48a8.75 8.75 0 0 1 2.88-.48c-.13-.77-.15-1-.24-1.92zm-4.08-5.56a6.63 6.63 0 0 1 0 1.44c2.37.6 1.5 1.22 2.16-1.2-.22-.17-.4-.16-.48-.48-.4-.12-.65 0-1-.24-.01.17-.54.41-.68.48zm2.4-18.72c.07.1 0 .6 0 .72.25.12.73.67 1 .72 2.57.58 1.52-1.84 1.2-2.64a3.44 3.44 0 0 1-1 0c-.3.42-.91.84-1.2 1.24zm-5.28-19.92c.4.87.39 2.27 2.16 1.68.17-.06.46-.6.72-.72a4.25 4.25 0 0 1 0-1.2c-.23-.17-.79-.89-1-1s-.49.15-.72 0c-.29.48-.82.88-1.16 1.28zm33.36-11.28a10 10 0 0 1 1.68 4.08c.24 0 .6.46.72.48 1.34.25 2.2-.72 2.88 1 .41 1-.06 2.84 1.2 2.16.36-.2.41-2.17.48-2.64a8 8 0 0 1-3.84-2.16c.06-.18.25-.71.24-.72a35.31 35.31 0 0 0-3.36-2.16zM124 125v.48a2.57 2.57 0 0 0-.24 1.2 11.21 11.21 0 0 0 1 1.68h.48c.13.11.31.66.48.72s.71-.12 1 0c.06-.14.72-1 .72-1 .08-.59-.43-.5-.48-.72-.16-.58.28-.93.24-1.2-.2-.38-2.08-1.65-3.2-1.16zm90.24-5.28c-.13.25-.67.54-.72.72a11.3 11.3 0 0 0-.24 1.92c-.83.28-1.64.64-2.4 1 .61 1 .9 1.84 1.92 2.4 4.34 2.34 2.18-3.69 1.92-6zm-81.12-2.64a3.45 3.45 0 0 1-.72.72c.54 1.1.76 2.5 2.4 1.92.46-.17.41-.71.72-1-.24-.16-.46.1-.72 0-.58-.22-.65-1.49-1.2-1.68zm2.64-3.12c-.12.31-.43.33-.72.48a7.56 7.56 0 0 1 .24 1.44c.4 0 .23.28.48.48.11-.11.8 0 1 0-.13-1-.11-1.52-.24-2.4zm79.2-4.32s.17.69.24 1c-.26.05-.38.44-.48.48a11.59 11.59 0 0 1-1.92.24c-.18 2.23-.82 3.25-.72 5-1-1.79-1.63-1.65-3.12-.48-.23-.29-.4-1-.72-1.2-.77-.44-4.2-.21-5.52-.48-.06.25-.45.38-.48.48-.31.88 0 2.42 0 3.36l-.48.24c-.17-.36-.45-.48-.72-.72.62-2.06.07-4.8-2.4-3.12-.31.2-.22 1-.48 1.2a5.39 5.39 0 0 1-1.2.48c.17.67-.07 1.12.24 1.68.47.85 2.54.72 2.88 1.68.14.4-.15.79 0 1.2a3.28 3.28 0 0 0-.72 0 4.82 4.82 0 0 1-1.44-2.16 20.43 20.43 0 0 1-3.12-.24c-.08 0-.58-.7-.72-.72-.91-.15-1.22.56-2.16.24-.1 0-.23-.44-.48-.48 1.26-.72 1.15-.6 1-2.4l-.72-.24c-.2.29-.55.23-.72.48s-.07 1.06-.24 1.2c-.57.45-1.42-.1-1.92.72a20 20 0 0 0-.72 2.64c-4.64-1.37-2.92 2.14-5.76 2.16 0 0-.6-.22-.72-.24v-.48a4.3 4.3 0 0 1 1.2 0c-.11-.08.2-.42.24-.48-.24-.2-.37-.13-.48-.48a12.62 12.62 0 0 0-3.12-.48c-.45.08-1.07 1-1.44 1.2-.9.52-1.87.48-2.88 1-.18.08-.49.67-.72.72-.81.15-1-.47-1.68-.24a4.45 4.45 0 0 0-.48.72c-.86 1.1-.66 1.62 0 2.88l-1.92.48c.11-.26-.1-.7 0-1a4.39 4.39 0 0 1 .64-.48c-.15-.41.14-.79 0-1.2-.05-.14-.62-.49-.72-.72a6.64 6.64 0 0 1-1.44.24c-.11 1-.37 2.63-.48 3.6a7 7 0 0 0-1.44 0c.12.34-.13.85 0 1.2s1.3.74 1.68 1c0 0-.1 1.34-.24 1-.15.25.1.44 0 .72s-.59.5-.72.72h-.48a10.22 10.22 0 0 0-1-1.92c-1.08-1.43-.89-.58-2.64-1.2-.08 0-.41-.7-.48-.72-.41-.15-.79.14-1.2 0-.13.26-.67.54-.72.72-.23.69.05 1.39-.24 1.92-.48.83-1.63.5-2.4 1-.94.54-1.42 2.65-1.68 3.84-1.91-.9-.74-.9-2.64 0 .08.41-.12.55-.24 1a3.52 3.52 0 0 0 2.16 1c-.08 0-.05.88-.24 1a4 4 0 0 1-1.2 0c-.13.27-.67.71-.72 1-.22 1 .43 2 .48 2.64 0 .48-.26.71-.24 1h-.48c-.5-.17-.95-1.54-1.44-1.68-.77-.22-.85.26-1.44.24-.62 2.07-.78 1.9.72 3.12-.49.43.11 3.13.24 4.08-.36-.35-.83-.61-1.2-1 .5 0-1.31-.2-.72 0-.28.23-.69 0-1 .24v.48c-.75 2.16.67 2.42 1.44 4.32-.08.08 0 .62 0 .72-.12.29-1.28.63-1.44 1s0 .71 0 1a12.63 12.63 0 0 1-.72 1.2c-.12.46.1 1 0 1.44a11.11 11.11 0 0 1 1.68 1.44c.26.39.17.88.48 1.2s.91.32 1.2.72a18.84 18.84 0 0 1 1.68 4.8 3.77 3.77 0 0 1 1.2.24c-.11.09-.17.62-.24.72-.22.32-1 .41-1.2.72-.43.74.08 2.62 0 3.84.44.18.11 0 .24.48a11.9 11.9 0 0 0 2.64 0c-.1.26.07.68 0 1-.21.76-1.61 1.31-.72 2.64.13.19.89.25 1 .48.34 1.15-.81 1.78.24 2.4a9.14 9.14 0 0 0 1.68.48c-.1.85-.5 2 0 2.88.08.15.68.32.72.48.15.56-.22 1.38 0 1.92.05.14.35.12.48.24.64.57 1.27.48 1.92 1 .23.17.07.44.24.72.94 1.52 2.21.67 3.36 0a30.25 30.25 0 0 1-.48 3.84c.17 0 1.44.35 1.2.24.66-.43 1.43-.28 1.68-1.2.06-.25-.13-.74 0-1s.87-.09 1-.24c.09.19-.05.52 0 .72s.7.65.72.72c.08.38-.32 1.39-.24 1.44a1.46 1.46 0 0 0-.48.48 3.85 3.85 0 0 1 0 .72 4.85 4.85 0 0 0 3.36.48 5 5 0 0 0 0 1.2c-.19.29-.68.48-1 .72a4.11 4.11 0 0 1 0 1c.34.13.31.4.48.72a4.23 4.23 0 0 0 2.16-.72 7.08 7.08 0 0 0 1.2-.72c.42-.62.1-1.32.72-1.68.3-.18.85.09 1.2 0l.48-.48c1.25-.29.79.1 1.68.24a5.43 5.43 0 0 0 0 1.44c-.66.24-1.37.49-1.92.72 0 .4.24 1.68.24 1.68a3 3 0 0 0 1.44.24c.33-.07.88-.76 1.2-1 1.49-.95 2.35-.37 4.08-1 .1 0 .22-.43.48-.48-.11-.53.22-1.21 0-1.68h-.24c-.44 0-.88-.55-1.2-.72a7.17 7.17 0 0 0 0-1.44c.22-.19.34-.72.72-.72h.24c.45.43 1 1.5 1.68 1.68.27.07.69-.1 1 0-.29.88-.2 1.22-.48 2.16.86.38 2.3 1.18 3.6.48s.35-1.57.24-2.16.27-.89.24-1.2a14.42 14.42 0 0 0 4.56-1c.08 0 .17-.46.24-.48h.48c.35-.59 0-1.38.24-2.16.17-.52 1-.79 1.2-1.2s0-.74.24-1.2c1 0 3.23.14 4.32-.48.49-.28.74-1.11 1.2-1.44.21-.17.46.09.72 0 1.56-.61.5-2.17 0-2.88.83-.23 2.39-.46 2.64-1.2.13-.39-.19-1.1 0-1.44h.24a11.54 11.54 0 0 0 2.4-2.16c.25.11.69-.1 1 0 .59.2.71 1.44 2.16 1 .17-.06.46-.6.72-.72-.22-.37 0-.88-.24-1.2-.11-.15-1.33-.67-1.44-1s.15-.49 0-.72c2.26-.59 2.68-.49 2.4-3.12.81-.51 1.6-.64 2.4-1.2.25-.18.2-.53.48-.72-.17-1.12-.46-2.62.48-3.12 1.76-.94 2.3.56 3.12.72 1 .19 1.13-.37 1.68-.48-.06-.58.29-.39.24-1 0-.23-.53-.77-.48-1.2 0-.11.7-.67.72-.72.11-.29-.14-.46 0-.72-.38-.18-1-.5-1.44-.72.7-1.51.61-2 0-3.6a23.69 23.69 0 0 0 2.4 1.2h1.44a18 18 0 0 1 1.2-2.88c.62-.44 1.51-.09 2.16-.48s.2-1.36 0-1.2c.1-.39-.13-.83 0-1.2 0-.1.43-.23.48-.48A5.4 5.4 0 0 0 231 151c.19-1.73.2-2.44-1-3.36-.12-.09-.67-.34-.72-.48-.18-.52.08-1.13 0-1.68.38-.11.39.2.48-.24.4.17.79-.18 1.2 0s.2 1 .48 1.2a2.37 2.37 0 0 0 3.6-1c.29-.93-.13-.91-.24-1.68h-.48l.24-1.92a6.78 6.78 0 0 1-1.44 0c-.15-.41.14-.79 0-1.2-.06-.16-.63-.34-.72-.48-.25-.41 0-.74-.24-1.2.26-.14.43-.65.72-.72s.56.11.72 0c.44-.32.7-1.51 1.2-1.68a8.64 8.64 0 0 1 2.16 0c.38-1.3.81-2.33 1.2-3.36-.18-.12-.26-.83-.48-1-.47-.27-1.08-.25-1.44-.48-1.4-.9 1.58-1.61 2.16-2.16.23-.22 0-.73.24-1-.26-.06-3.26-.66-3.36-.72s-.82-1.87-1-2.16a6.14 6.14 0 0 0 2.16-1.2c-.35-.32-.33-.91-.72-1.2s-.55-.12-1-.24c0 0-.18-.88-.24-1.2.75-.35 1.29-.6 1.92-1-.13-.35.12-.86 0-1.2-.06-.16-.63-.34-.72-.48a13.14 13.14 0 0 1-.72-1.92c-.13.4-.24-.72-.24-.72 1-.6.28-2-1-1.92l-.48.48c-.46.23-.79.3-1.2.48V117c.14.3.61.49.72.72.24.51.09 1 .24 1.44-.53-.46-1-.72-1.44-1.2-.41.14-.79-.15-1.2 0s-.67 1.09-1 1.2-.8-.15-1.2 0l-.24-.48c-.12.37-.24-.91-.24-1s.7-.43.72-.48c.17-.61-.29-.92-.24-1.2h-.48c-.32.11-.63 1.21-1 1.44-.16.1-.55 0-.72 0s-.79.66-1 .72a14.24 14.24 0 0 1-4.56.48 7.55 7.55 0 0 0-.4 2.36h-.72c-.05-.58-.24-1.72-.24-2.64a8.34 8.34 0 0 1 1.44-.24 15.09 15.09 0 0 0-.48-3.6 3.48 3.48 0 0 0 2.4 0l.24-.48a5.73 5.73 0 0 1 1.68 0c0-.23.33-.47.24-1-.19-1-1.57-1.92-2.16-2.64-.25.35 0 .6-.24 1s-.46 0-.72.24-.5.91-.72 1.2c0-.07-.65-.17-.72-.24s-.15-.64-.24-1c-.26-.05-.38-.45-.48-.48-.89-.31-1.38.32-1.92.48l-.24-.24a8.31 8.31 0 0 0-.24-2.64 3.17 3.17 0 0 1-1 0c-.17.28-.81.56-.93.96zm-100.8-12v3.12c-.12.18-.61.29-.72.48s-.11 1.09-.24 1.2c-.36.29-.6.13-1.2.24.3.16-.57.28-.72.24s-.23-.4-.48-.48c.16-1.26.48-2.66-.72-3.12-.48-.19-.56.34-1.2.24-.2 0-.77-.68-1-.72-1.9-.41-2.71.85-3.6 1.44-.24-.16-.46.1-.72 0s-.62-1-1-1.2a5.81 5.81 0 0 0-3.84.24c-1.15.62-.54 3.19-1.2 4.32-.11.17-1.66 1.42-1.92 1.68-.28-.26-1.18-1.36-1.44-1.44-2.51-.72-4 3.57-5.28-1a3.41 3.41 0 0 0-1.44-.24l-.24.48c-.79.51-1.46 1.55-.24 2.16.2.1-.34.26-.24.48-.52.14-1.16.58-1.68.48s-.54-1.19-1.92-1A24.15 24.15 0 0 0 81 107a11.24 11.24 0 0 1-2.4-.24l-.24.72c-1.9.5.16-1 .48-1.2-.07-.37-.25-1.12-.24-1.2-1-.15-1.25-.1-2.16-.24-.07.31-.29.32-.48.48.25 1 .24 1.39.48 2.16-.61.28-1.42.15-1.68.72a8.76 8.76 0 0 0-.24 2.16c-.49-.15-.48.38-1 .24-.32-.1-.5-1.06-1-1.2-1.25-.37-2.39-.08-3.6-.24a10.55 10.55 0 0 1-2.4 5.52c-.11-.08-.61 0-.72 0a6 6 0 0 1-.72-2.4c-.41-.11-.37.18-.48-.24-.25.13-.71-.09-1 0s-.23.39-.48.48c0 0 0 1.12.24.72l-.24 1c-.55.08-1.16-.18-1.68 0-.35.11-.62 1.05-1 1.2-1.75.76-3.29-.25-4.56-.72a4.69 4.69 0 0 0-1.2 1.92 12.65 12.65 0 0 0 0-1.92c0-.14-.44-.18-.48-.48-.34.12-.86-.13-1.2 0s-.63.53-1 .72c-.23-.15-.48-.83-.72-1a10.52 10.52 0 0 0-3.36-.48s-.19.44-.24.48c-1.4 1.23-.68.94-.48 2.4l.24 1s1.13 0 .72-.24h1a8.16 8.16 0 0 0 0 1c-.57-.11-.4.34-1 .24-.2 0-.77-.92-1-1a10.46 10.46 0 0 0-3.84 1c-.24.13-.07.55-.24.72s-.83.24-1.2.48c-.16.09-.33.66-.48.72s-.59-.08-.72 0c-.17-.44-.36 0-.48-.24a3.16 3.16 0 0 1 0-1c-.42-.1-.14-.09-.24-.48a5.82 5.82 0 0 1-1.44 0 6.78 6.78 0 0 1-1.92 2.16c-1.16.59-3.9.73-4.56 1.68-.25.35 0 .6-.24 1-.42-.15-.19.27-.24.48-.61-.19 0 .72 0 .72.63.19.78-.26 1.44-.24v.72c-.59.17-.54.08-1.2.24.36.25-.68.22-.72.24l-.24-1.2c-.16-.1-1.13.13-1.2 0a6.1 6.1 0 0 1 0-1.92c-2.57-.57-1.75-.41-2.88 1.68 0 .08-.72.7-.72.72-.19.86.35 1.61.24 2.16-.06.25-.64.48-.72.72a3.8 3.8 0 0 0-1.2 0 10.82 10.82 0 0 1 .24-1.68c-.21-.16-.43-.14-.48-.48-.46 0-1.68.24-1.68.24l-.44.2c-.34.32-.15 1.34-.48 1.68s-1.42.29-1.92.72c-.17.13 0 .62-.24.72s-.87-.13-1.2 0c.25-.12-.48-.48-.48-.48l.48-.72c.86-.26 1.69-.13 2.16-.72l.48-.72a4.93 4.93 0 0 0-.24-1.44c-2.27 0-3.58.27-4.8 1.92-.2.26-.2.83-.48 1-.73.32-1.58-.1-2.16.24a7.53 7.53 0 0 0-1 3.84c.05.17.6.47.72.72a6.58 6.58 0 0 1 1.44 0s-.29.46-.24.48c-1.84.32-1.9.73-2.64 2.16-2.39 0-2.77.19-3.36 1.92v.48c-.49.39-1.41.12-1.92.48-1.18.82-.24 4.18-.24 6.24 1 .29 2.53.77 2.88 1.68.1.25-.16.48 0 .72a29.57 29.57 0 0 0-3.84 3.6c-.23.77.17 1.27.24 1.92.31 0 .79.36 1.44.24s.63-.74 1-1c0 0 1.07.38.72.48.15.11.64.31.72.48.27.54.05.94.24 1.68-.33.06-.35.46-.48.72-.26-.13-.55-.67-.72-.72-.51-.17-1.16.08-1.68 0-.25.78-1.08 2.21-1 3.12 0 .15.67.61.72.72.36.81-.07.82 0 1.68-.31-.16-.19.37-.72.24-.06 0-.27-.43-.48-.48 1-.36-1.34-.36-.72-.24l-.24 1c1 .58 2.71 1 3.36 1.92.36.51.25 1.29.72 1.68.75.62 1.68.25 1.92 1.44.27 1.37-.68 1.77-.48 2.88.11.61 1.2 1 1.44 1.44a12.13 12.13 0 0 1 .48 1.92c.1 1.08-.28 3.77.24 5h.24c.72.36 1.24 1.69 1.92 1.92h.48c.12.11.07.63.24.72.53.27 1.13-.07 1.68.24s2.38 3 1.44 3.84c1.19.94 3.61 1.55 3.36 3.84 0 0-.63 1-.72 1.2.3-.16.19.37.72.24.26-.07.33-.7.48-1a3.16 3.16 0 0 0 1 0c.5.49 2.45 1.95.72 2.4-.17-.21-.48-.88-.72-1s-.71.11-1 0a3.64 3.64 0 0 1-.72.72s0 .88.24.48c.17.55.11.4.24 1 .48-.22.24 1.68.24 1.68a7.3 7.3 0 0 1 3.6-.48 2.38 2.38 0 0 1 .24-.48c.22-.06 1.18.18 1 .24a15.64 15.64 0 0 0 1.2 1.68c-1.1.33-2.38.37-2.64 1.44 0 .12.06.61 0 .72s-.87.44-1 .72.12.85 0 1.2c.44-.21.8 0 1.2-.24s.79-1.12 1.2-1.44c.81-.66 1.61-1 2.4-1.68a19 19 0 0 0 1.92 2.64c.29.29 1.28.59 1.44 1 .28.7-.29.89-.24 1.44l.48.72A6.67 6.67 0 0 0 33 203c.26-.11.68.07 1 0 .66-.18 1.39-1.25 1.92-1.68 1.81 1.64 3.33 2.95 6.24 1.44-.16 1.42-.31 2.83 1 3.36.38.16.74-.07 1 .24s.61 1.89.72 2.16c2.72-.41 3.44-.08 5.28 1 .37-.23 1.35-1.3 1.92-1.2 0 0-.19 1.16-.24 1.44a11 11 0 0 1 1.44 1c.19.38-.1 1 0 1.44s1.15 1.17 1.2 1.44c.1.55-.35.89-.48 1.44a7.18 7.18 0 0 1 2.4-.48c.67.11 1.18 1.13 1.68 1.44s.77 0 1.2.24c.65.38 1.86 2.89 2.16 3.84a14.21 14.21 0 0 1 3.6-.72c.3 0 .82.48 1.44.24v-.24c.39-.2.43-.76.72-1s.74 0 1.2-.24c.72 2.38-.22 1.52 2.16 2.16a3.73 3.73 0 0 1 .48-.72c.27-.11.46.13.72 0 .2.17.49.83.72 1a13.69 13.69 0 0 0 3.36.48c.08.54-.19 1.16 0 1.68.37 1 4.82 1.84 6.24 2.16.11.42-.11.77 0 1.2 0 0 2.09 2.13 2.16 2.16 2.11 1 2.17-.67 3.12-1 1.92-.59 2.62.55 3.36 1 .39.22.76 0 1.2.24.13-.35.4-.32.72-.48-.19-1.34-.12-2.08-.24-2.88.38.1.58-.13 1-.24.21.37.8 1.77 1.2 1.92 1.36.51 3.14-.45 4.08-.48 1.61-.07 1.81.53 2.64 1.2 2.25-1 2.44-.05 5-.48.24 0 1.3-.71 1.44-.72.83-.14 1.64.33 2.16.24.23 0 .71-.61 1-.72-.11-.43.1-.78 0-1.2 0-.09-2.4-3.5.72-2.64.11 0 .53.68.72.72.49.09.73-.29 1-.24-.25-.2.2-1 .24-1.2-.27-.14-.1-.42-.24-.48a4.79 4.79 0 0 0-1.2-.24c0-.49-.26-.72-.24-1 .06-.86 1.52-1.3 1.92-1.92s.16-1.17.48-1.68a7.27 7.27 0 0 1 4.32-1.68c.11 0 .67.7.72.72.25.08.73-.14 1 0s.61 1.06 1 1.2c.18.07.53-.12.72 0 .21-2.71.1-2.09 2.16-2.16a12.87 12.87 0 0 1 0 2.16s-.68.44-.72.48c.43 1.62-.1 1.15 1 2.16-.25.08-.37.44-.48.48-.37.12-.82-.11-1.2 0 .38.14-.92.23-1 .24a3.21 3.21 0 0 0-.24-.72c-1.19-1.77-.89-1.68-3.84-1.68a6.59 6.59 0 0 1-.48 1.68c-.27.35-1.11.42-1.44.72s-.22.23-.48.72v.72c.17 0 .82-.11 1 0 0 .08.17.83.24 1.2-1.19 0 .09 1.88.24 2.16-.79.62-1.44 1.25-2.16 1.92.13.42.3.52.24 1 2.5 1.46 3 1.2 4.32-1.2.16.2.79.25 1 .48s0 .65.24 1c1 1.57 2.14.81 3.36.24a7.25 7.25 0 0 1 .24-3.36c.23.13.7-.11 1 0s.68 1.3 1.2 1.44c1.81.45 2.06-.92 2.88-1.44.42-.28.76 0 1.2-.24s.83-.92 1.2-1.2c.19.09.52-.05.72 0 .38.09.68.83 1 1 .81.38 1.27 0 2.16 0a5.19 5.19 0 0 1 .48-.72c.33-1.3-.74-1.93.24-2.64.25.11.69-.1 1 0s.44 1 .72 1.2c1.28.94 2.33 0 3.36-.48v-2.16c-.55-.22-2-.65-2.16-1.2-.1-.27.11-.71 0-1 .62.17.53-.4 1.2 0s.32 1.56 1.92 1.44a3.13 3.13 0 0 0 2.16-1.92s.59-.32.24-.48a1.68 1.68 0 0 1-.72-1.68c0-.11.65-.4.72-.48.56-.75.43-1.34.72-2.4-.21-.16-.43-.14-.48-.48a3.86 3.86 0 0 1-.72 0v-.72c3.29 1.52 3.65.18 6.72-.72a9.35 9.35 0 0 1 .24-1.92c.1-.28.86-.62 1-1s-.1-1 0-1.44c-.22-.17-.4-.16-.48-.48a4 4 0 0 1-1.2 0c-.16-.08-.38-.91-.48-1 .22 0 .56-.37.72-.48 1.33.89.81.78 2.64.72-.06-.58.29-.39.24-1 0-.25-.7-.86-.72-1-.17-.85.38-1.06.48-1.44s-.13-1 0-1.44.89-1 1.2-1.44c-.1-.17 0-.55 0-.72-.13-.55-1.23-.93-1.68-1.2.58-2 1.32-2.65 1.68-5-.2 0-.64-.47-.72-.48-1.44-.32-2.14 1.13-2.88 1.68a3.94 3.94 0 0 0-.48.72c-.1-.49-.27-1.63-.48-2.4-.06-.2-.69-.77-.72-1-.23-1.42 1.17-1.62 1.44-2.64v-.24c0 .18-.3-.7-.24-1s2-3.69 1-4.32c-1.42-.9-2.29.52-3.12.72-.14 0-.6-.06-.72 0-.06-.26-.45-.38-.48-.48a10.57 10.57 0 0 1 0-2.88c.13.44.24-.24.24-.24-.82-1.81-.65-1.35-2.64-1.2-.22.83-.72 3.91-1.44 4.32s-1.36 0-1.92.24c-.11 0-.67.71-.72.72-.53.11-.71-.3-1-.24.28 0-.24-.72-.24-.72-.07-.87.88-2.36 1-2.88a6.7 6.7 0 0 0-.48-2.4l.24-.72c.45.1 1-.15 1.44 0 1.13.38.74 2.52 2.64 1.68s.76-2.9.24-4.08c-1.26.1-1.8.08-2.88.24.47-1.63.32-1.46 0-2.88a8.35 8.35 0 0 1-1.2-.48s-1.6 1.55-1.2 1.68c1 .32.47 3.06 0 3.84-.35.56-1.52.93-2.16 1.2.18-3.07-.09-2.42 1.92-4.32-.29-.89-.22-1.11-.48-1.92.12-.1.65-.34.72-.48.21-.46-.2-.71.24-1 0 0-.44-1.25-.48-1.44.24.15.71.08 1 .24s.33.67.48.72 1.15-.18 1-.24c0-.14.67-.34.72-.48.25-.73-.25-1.92 0-2.64.18-.53 1.49-.31 1.2-1.92-.1-.54-1.07-1.09-1.44-1.44.72-1.56.72-.94.24-2.4-.35-1.08-.67-2.24-1.68-2.64-2.62-1-3 .45-2.64 2.64-.17.13-1.15.55-1.2.72v.48h-.48c-.18-.65 0-1.1-.48-1.44l-.24-.24c.11-.11-.07-.56 0-.72h-.4c.92-.46 1.3-1.37 1.92-2.16-2.36-.43-2.36-1.48-3.12-4.08a10.1 10.1 0 0 1 2.4-1.2c1.28-.06 1 .67 1.44 1s.73 0 1.2.24a8.07 8.07 0 0 1 1-.72c-.18-.7.07-1.18-.24-1.68 0-.05-1-.48-1-.48-.23-.9.67-.88.48-1.92-.1-.54-.94-.83-1.2-1.2s-.06-.67-.24-1c-.42-.67-1.46-1-2.16-1.44.1-.47-.13-1 0-1.44.08-.26.92-.85 1-1.2.13-1.33-1.27-2-2.16-2.4-.49-.19.66-.53 1-.48l.48.48c2.13.57 1.74-1.49 1.68-2.64-.31-.05-.34-.44-.48-.48-1.17-.41-2.69.92-3.36 1.2l-.48-.72c0-.14.67-.35.72-.48a5.15 5.15 0 0 0 0-1.44c.37.16.13-.39.72-.24.1 0 .35.64.48.72 1.22.76 1.73.16 2.64-.48-1-2.44-1-3.4-3.84-1.92a4.65 4.65 0 0 0 0-.72c1-.42 1.42-.34 1.92-1.2.06-.11.34-.18.48-.24-.11-.26.09-.7 0-1-.16-.47-1.09-.92-1.2-1.44-.31-1.39.21-2.42 0-3.84.23.14.47-.4 1 0s.07 2.42 0 3.36c.46-.07.87.31 1.68 0 .08 0 .17-.47.24-.48 0-.22.68-.62.48-1.44 0-.06-.51-.55-.48-.72 0-.35 1.07-.59 1-1.92-.07-.79-.88-.55-.48-1.68 0-.07.64-.6.72-.72s-.05-.62-.24-.24c-.15-.08-.26-.88-.48-1a6.87 6.87 0 0 0-1.92 0v-.48h.24a4.9 4.9 0 0 1 .24-1.2c1-.92 2.14.11 3.36-.24.14 0 .49-.61.72-.72a3.19 3.19 0 0 1 0-1 8 8 0 0 0-2.64-2.16 4.87 4.87 0 0 0 0-1.44c-.29-.47-.76-.15-1.2-.48s-.79-1.7-1-2.4c-.26-.06-.38-.45-.48-.48-3-1-1.87 2.44-1.44 3.6-.42.14-.44 0-.72.24-.93.73-.81.64-2.16.24.18-.29-.5-.33-.24-.48 1.35-.82.79-2.36.72-4.32l.72-.24c1.21-2.13.22-2-1.92-1.92.17 2.41.51 1.73-1.44 2.16-1.25-1.82-1.73-2.16-4.08-2.16a8 8 0 0 1-.48 1.2c.09.14.68.62.72.72-.13.09 0 1 0 1.2a5.69 5.69 0 0 0-1.44.24 26.2 26.2 0 0 0-1.2-4.56 7 7 0 0 0 1.68-1.68 4 4 0 0 1-.24-1.2c-.16 0-1.23-.16-1 0-.73.39-.77.06-1.2.72a8.7 8.7 0 0 0-.48 1.44c-.28-.07-.94-.25-1-.24-.14-.2-.29-.59-.48-.72-.26.17-.39-.41-.48-.48 1.79-1 1.84-.69 1.44-2.64-.31-.05-.34-.43-.48-.48-.3-.1-1.12.2-1 .24h-.48c-.35.12-.32 1.06-.72 1.2s-.72-.13-1 0c-.3-1.12-.73-2.75-1.68-3.12-.26-.1-.49.15-.72 0-.04.47-.67.65-.89.76zM192.87 65s-1.7.4-2.4.48c0 .23-.23.86.24.72a12 12 0 0 1 .72 1.2c1.35-.21 1.24.45 2.16-1l.48-.24c.05-.19-.14-1-.24-.72-.41-.08-.17-.37-.96-.44zm11-31.2c-.27.41-.11.65-.24 1.2-1.1-.29-1.55-.19-2.64-.48-1.46 3.14-.94 2.26-4.56 2.4l-1.2.48c-.19 0-.43-.21-.24-.24-.34-.15-.87.14-1.2 0s-.36-1.66-1.68-1.2c0 0-.58.92 0 .72 0 0 .19 1.18.24 1.44-1.1.78-.93.5-1.68 1.68a4.38 4.38 0 0 1-1.44-.48c-.91-.61-.43-1.13-.24-1 .08-.53.71-.51.48-1.44-.06-.22-.83-.52-1-.72s-.13-.58-.24-1c-.08 0-.85-.18-1.2-.24a16.81 16.81 0 0 0 0 3.84 15.1 15.1 0 0 0-2.88.24c-.35.1-1.1 1.15-1.44 1.44a3.59 3.59 0 0 0-1.2 0 10.31 10.31 0 0 1-.24-1.44 4.83 4.83 0 0 0-2.88-.48c-.15 0-.65.69-.72.72h-.48c-1.74 1.69 1 2.08 1.92 2.64.3.17.66.77 1 1a7.41 7.41 0 0 0-1 .72c-1-.74-2.22-1.62-4.08-1-.41.13-.79.85-1.2 1s-1-.09-1.44 0c-.25-1-.77-2.84-1.92-2.88-.37 0-.71.37-1.2.48-.06.25-.45.37-.48.48a9.81 9.81 0 0 0-.24 2.16 31.68 31.68 0 0 1-5 1.2c-.35.94-.58 1.58-1 2.4h-.48V47c-.4-1.15-1.58-.65-2.4-.48a10.31 10.31 0 0 1-1.44 3.6c-2-.68-1.59-.64-3.12 0a7.09 7.09 0 0 1 0 1.44l.72.24v.72a12.69 12.69 0 0 0-2.88 0c-.09.54-.67.47-.48 1.44 0 .05.76.94.72 1-.68.29-1 1.92-1.2 2.64-2 .5-2.92.44-4.32 1.44.08.54-.19 1.16 0 1.68s1.36.8 1.68 1.2.46 1.6 1 1.92 1.07-.08 1.44 0c.05 0 .25.44.48.48 0 0-.43 1.43-.24 1.44a7.58 7.58 0 0 0-3.6.24c.11-1.12.38-2.75-.72-3.12-.27-.1-.71.11-1 0-.06.25-.45.37-.48.48-.38 1.11.52 1.56.24 2.64-.16.58-3.43 3.27-4.08 4.08.29.27.11.45.24 1 .58.15 1.55.6 2.16.72-2.76.68-4.12 1.66-2.88 4.32-.83.59-2.89 2.82-2.64 4.32.05.33.88.72 1 1s-.12.7 0 1a22.21 22.21 0 0 0-3.32 2.56c-.17.43.1 1 0 1.44a5.25 5.25 0 0 1 1 .24c.18.1.1.63.24.72-.38.64-1.5 1.5-1.68 2.16-.28 1 .45 2.81-.48 3.12-.54.17.72 1.44.72 1.44v.24a5.94 5.94 0 0 1 .72 1 3.61 3.61 0 0 0 .72.72c-.51.74-1.74 2-1.2 3.6.05.17.59.46.72.72a13.49 13.49 0 0 1 1.68-.24v2.4a26.82 26.82 0 0 0 .24 2.88c.15.25 1.16.28 1.44.48s.25.82.48 1a11.75 11.75 0 0 0 2.16.72 8.89 8.89 0 0 0 0 2.4c.26.71 1.4.65 2.16 1 .24-.35.68-.61 1-1a8.57 8.57 0 0 0 .48-1 8.06 8.06 0 0 0 1.2 2.64c.84.65 1.72.39 2.88.24-.1.16 0 .54 0 .72s-1 1-1.2 1.2a7.23 7.23 0 0 1 .48 1.2 18.26 18.26 0 0 1 2.4 0c.38 0 1 .69 1.92.48.21-.05.75-.89 1-1s.7.11 1 0c1.37 1.94.48 2 3.36 2.64.8-1.15 1.53-3.59 3.84-3.12.14 0 .71.9 1 1 .89.19 1.39-.52 2.4-.24.23.06.5.83.72 1 .38.23.77 0 1.2.24.24.13.28.82.48 1 .41.29 3.38 1.46 4.32 1.2.41-.13.67-1.07 1.2-1.2 1.28-.32 1.88.55 3.12.24.85-.22 1.39-1.87 1.68-2.64 3.28.44 2.2.07 4.08-1.2.38-.27.85-.22 1.2-.48s.47-.88.72-1c1-.32 2.11.25 3.12 0 .42-.11.86-.74 1.2-1-.08-.4-.26-1.08-.24-1.2-.57-.26-1.19-.71-1.68-1a18.7 18.7 0 0 0 2.4.24c.85-.13 3-1.78 3.12-2.64s-1.1-1.73 0-2.16c.59-.23 1.52.1 2.16 0a16.91 16.91 0 0 0 2.16-1 4.3 4.3 0 0 1 0-1.2c-1.63-.77-2-.83-3.6.24l-.24.48c-.85.14-.68-.44-1.2-.48.06-.37.25-1.12.24-1.2 1.9.18 2.82.18 3.84-1 1.82-2 .79-2.62-1.44-3.36.13-.27-.11-.44 0-.72s.86-.7 1-1-.11-.71 0-1h.48a6.68 6.68 0 0 1 0 1c.32.16.56.16.72.48 1.28-.43 3.45-1.28 3.6-2.64.21-2.05-2.29-2-3.6-1.92a6 6 0 0 0 .48-3.84 8.13 8.13 0 0 1 1.44-.24c.05-.26.44-.38.48-.48.44-1.28-.06-1.22.72-2.16a9 9 0 0 1 1.2-1c-.06.21-.46.83-.48 1-.12.79.45 1 .24 1.68-.08.24-1 .78-1.2 1a4.61 4.61 0 0 1 0 1.2c1.18.23 1.06 1.08 2.4-.24.43-.44.24-.79.48-1.44.22.14.7-.11 1 0s.41 1 .48 1.2c1-.46 2.19-.57 2.64-1.44.11-.22.74-3.41.72-3.6 0-.4-.65-.76-.48-1.68 0 0 1.09-1.9 1.2-2.16-.83-.23-1-.53-1.92-.72.13-.08-.13-.64 0-.72a3.93 3.93 0 0 1 1.2-.24 7.06 7.06 0 0 1 0-1.92c.06-.2.78-.58 1-.72-.56-1.19-.71-1.88-1.2-3.12.52-.25 1-.17 1.44-.48.19-.13.5-.88.72-1 .76-.31 1.48 0 2.16-.24.44-.16.74-.73 1.44-.72 1.48 0 1.79 1.53 2.16 2.64a4 4 0 0 1 1-.48 9.71 9.71 0 0 1 .24-2.88c0-.28-.23-.61-.24-.48V67c.83-.65 1.57-1.27 2.4-1.92-.09-.47.12-1 0-1.44l-.48-.48-.24-.48a5.77 5.77 0 0 1-2.4.24c-.12 0-.53-.63-.72-.72a7.12 7.12 0 0 1 1.44-1.92c-.32-1.26-1.16-4.81-1-6 .15-.94 1.63-1.65 1.92-2.4.69-1.9-.59-6.25-1.68-6.72s-2.47.29-3.6-.24c-.36-.17-.24-.87-.48-1.2-.5-.68-1.5-.46-2.16-1s-1.58-3.52-2.4-3.84c-.25-.1-.51.15-.72 0-.43 2.39-.35 2.29-2.64 2.88a10.14 10.14 0 0 0-.48-1.2c-.19-.26-1.12-.47-1.2-.72-.28-.9.52-1.37.24-2.4-.1-.36-.94-.73-1.2-1 0 0 .22-.45.24-.48a8.67 8.67 0 0 1 1.92 0c.48.16.83 1.28 1.44 1.44 3 .77 2.41-1.47 1.2-2.4a25.3 25.3 0 0 0-2.4-1.44zM55.11 30.72c-.35.34 0 1.21-.24 1.68a2.46 2.46 0 0 1-2.4.72s-.45-1.28-1.2-1.44a5.86 5.86 0 0 0-1.92.24l-.24 1.92-1.2 1.44.72.24a12.73 12.73 0 0 1 1 1.92c-.25-.12-.7.09-1 0-.82-.29-1.72-2.72-2.64-3.12-1.17-.52-3.19-.47-4.56-.72a3.4 3.4 0 0 1-1 .72v.72c.3.08.38.6 0 .48a2.36 2.36 0 0 1-.24-.48h-2.16a7.72 7.72 0 0 1-1.68 3.36c-.29-.23-.67 0-1-.24a6 6 0 0 1-.48-1c1.61-.45-2.71.09-1 .24-.39.11-.67 0-1 .24l-1.44 1.68c-.37.67-.18 1.95-1 2.4a7 7 0 0 1-1.68.24c-1.18 3.09-1 1-2.88 1.92-.31.14-.45 1-.72 1.2s-.7.1-1 .24l-.24.48c-1 .68-2 .44-3.12.48a9.82 9.82 0 0 1-.48 1.44c-.41.64-1.27.53-1.92 1-.83.53-2.78 3.64-3.36 3.84a10.57 10.57 0 0 0-1.44-.24 19.67 19.67 0 0 0-3.12.72 21 21 0 0 0 .24 3.12c-.56-.14.08.27-.48.24l-.23-.48a2 2 0 0 0-1.92 1c-.4.83-.06 1.58 0 2.4a5.45 5.45 0 0 1 1.44 0c-.22 2.75.07 2.78-2.4 2.64a4.67 4.67 0 0 1-.72.72c.28.95.21 1.38.48 2.4-.1 0-1 .18-1.44.24 0 0 .1-1.25-2.4.48.35 2.65-.88 3.56-.48 6.48-.71.41-1.52 1-2.16 1.44.08.42-.09.77 0 1.2.12.6.87 1.39 1 2.16a4.62 4.62 0 0 1-.24 2.16l-.48.24c-.32 1.44.32 3.21.43 4.52.29.1.61 0 .72.24s-.13.7 0 1c-.17.2-.82.48-1 .72-.78 1.26 0 2.39-.24 3.84l-.44.2v.48a3.34 3.34 0 0 0 0 1.92c.06.15.59.35.72.48v.48c2.48.17 2.5.2 3.84-1.44.18.06.69.26.72.24-.11.34-.45.79-.48 1a5.24 5.24 0 0 0 .24 1.44c.11.08.68.35.72.48a9.7 9.7 0 0 1 0 1.92c-2.2-1-3.63-.81-2.64 1.92.12.34 0 .55.24.72.43.28 1.1 0 1.68.24.15.07.56.93.72 1 1.54.29 2.17-1.28 2.64-2.16.27.13.66.46 1 .48-.83 1.67-.5 1.42 0 2.88a3.28 3.28 0 0 0 0 .72c-.13-.35-.26.62-.24.72.31 1.42 2.28 1.29 3.6 1.2-.08.12 0 .58 0 .72-.26.65-1.83 1.33-2.4 1.68.14.4-.15.79 0 1.2a6.38 6.38 0 0 0 1.68 1.44 6.28 6.28 0 0 0 3.36-.72c.23-.13.62-.91 1-1 .76-.13 1 .3 1.68.48v.72c-3 .33-3.78 1.07-2.16 3.36 1.28-.33 1.59-.16 2.88-.48.1.79.32 2.34 1 2.64.43.2 1.18-.07 1.68 0 2.55.35 2.61 1.45 4.32-1a5.8 5.8 0 0 0 2.88 0l.48-.48c.8-.11 1.63.44 2.16.48.68 0 .92-.24 1.44-.24.15-.61.27-1.13.48-1.92a10.61 10.61 0 0 0-1.2-.72v-.48c.79-.37 1.69-1 2.4-1.2a4.26 4.26 0 0 1 2.88 0l.48.48c1.24.18 1.85-.59 2.64-.72.54-.1 1.42.21 1.92 0 .73-.32.69-1.81 1.2-2.4s1.74-.92 2.4-1.44c-.23-.58.72 0 .72 0 .34 2.18 0 1.81 2.16 2.16.36-.68 1-2.14 1.92-2.16.42 0 .13.33.72.24.12.34-.13.86 0 1.2 0 .13.6.47.72.72.26-.1.68.07 1 0 .75-.21 1.15-1.95 1.44-2.64 2.69-.11 2.13.13 3.12-1.68a11.1 11.1 0 0 0 2.64 0c.05-.26.44-.38.48-.48.18-.52-.18-1.15 0-1.68s.97-.8 1.28-1.2.35-1.12.72-1.44c.71-.64 1.81-.67 2.16-1.68.18-.53-.1-1.12 0-1.68 0-.29.69-1.16.72-1.44.18-1.83-.88-2-1.92-2.64-.31.42-.64.79-1 1.2.6.11-.72.48-.72.48.23-1.3-.19-1.26 1.2-2.16.56-.37.91-.33 1.44-.72.16-.13.29-.64.48-.72.82-.4 1.82 0 2.64-.48.38-.22.18-1 .48-1.2-.37-.69-.09-.79-.72-1.2a7.81 7.81 0 0 0-1.2-.48c.25-.17.43-.85.72-1 .69-.28 1.39.07 1.92-.24s.16-.75.48-1.2c.2-.3 1-.44 1.2-.72a11 11 0 0 0 1-3.6c-.08-.38-.83-.69-1-1-.26-.56-.05-.94-.24-1.68.31 0 .35-.45.48-.48.51-.13.69.41 1 .48 1.45.33 1.76-.52 2.4-1a23 23 0 0 1-.24-3c-1.14-.58-1.61-.22-1.68-1.92s.82-1.55 1-2.16a3.74 3.74 0 0 0-.24-1.44c-.18-2.12.58-2.33 0-4.32a4 4 0 0 1 1.2 0c.72-1.54.63-.91.24-2.64-.32-.1-.76-.06-1-.24a16.64 16.64 0 0 1-1.44-1.92c1-.82 1.77-1.64 2.88-2.4-.13-.42.12-.79 0-1.2 0-.14-.67-.71-.72-1-.23-1-.1-1.71-.24-2.64.27 0 1.31.18 1.92.24a7 7 0 0 0 .24-1.36c0-.12-1.15-3.07-1.2-3.12-.24-.22-1-.32-1.2-.48.35-1.11 1.17-3.1-.24-3.6-.41-.15-.79.14-1.2 0a10 10 0 0 1-.48 1.2c-1.2 2.09-.21.14-1.2.48a6.6 6.6 0 0 0 0-1.44 3.58 3.58 0 0 0 .48-.24c.11-.35.24-.3.48-.48a10.74 10.74 0 0 1-.48-1.44 6.75 6.75 0 0 1-2.4.72c-.05 0-.6-.69-.72-.72-.28-.08-.7.1-1 0-.19.18-.75 1.12-1 1.2s-.72-.13-1 0c.84 0-.47-3.1-.48-3.12a6.9 6.9 0 0 0 2.16-1.2 6.15 6.15 0 0 1 0-1.44 7 7 0 0 0-2.52-.32 1.77 1.77 0 0 0-.72-1 9.1 9.1 0 0 1-1.92 1.2c-.28 2.44-.13 2.41 1.92 2.4a10.21 10.21 0 0 0-.75 2.72 7.54 7.54 0 0 0-2.4-2.16h-.24c-.41-.83-.11-2-.24-2.88.51-.1.45 0 .72-.24s1.17-.58 1.44-1c.11-.16.2-1 0-.72-.07 0-.34-.89-.48-1-1.14-.59-2.87.23-3.84 0-.68-.17-1-1.7-1.68-1.92h-.48c-.11.3-.53.15-.69.32zM126.63.48c-.24.67.16 1.2.24 1.68-.26.05-.38.44-.48.48-.87.29-2-.23-2.88 0-.48.11-1.16 1.09-1.68 1.2-1.11.22-1.7-.51-2.64.24-.45.34-1.42 3.4-1.68 4.08-.26-.14-.45.1-.72 0s-.62-.83-1-1c-2.2-.89-2.12.91-3.12 1.68-.37.27-1 .27-1.44.48l-.24-1c.28-.26 1.09-.55 1.2-1s-.11-.71 0-1c-.21-.17-.43-.14-.48-.48a7.09 7.09 0 0 1-1.44 0c-.24.33-.87.81-1 1.2 0 .16.1.55 0 .72s-1.12.45-1.2.72c-.36 1.09.24 1.91.48 2.64h-.48a2.68 2.68 0 0 0-1 1.92c0 .2.65.58.72.72s.11.85.24 1 .56 0 .72.24a14.21 14.21 0 0 0-.72 2.4c-.13-.08-.59 0-.72 0-.63-1.33-.79-.84-.48-2.88-.24-.11-.75-.67-1-.72-.72-.19-1.7.2-2.4 0-.24-.08-.37-.87-.72-1s-1.15.19-1 .24c-.29.51-.64 1-1 1.68 0 .08-.46.17-.48.24-.16.39 0 1.16-.24 1.44-.44.4-1.22.1-1.68.48s-1 3.74-.48 4.08c.74.48 1.18 0 1.68-.24s.17-.47.24-1l.72.24a10.07 10.07 0 0 0-.24 1.68c-.26.05-.38.44-.48.48-.73.25-1.89-.19-2.64 0l-.24.48c-.39.25-.73 0-1.2.24a31.71 31.71 0 0 1 .72-3.12c-.45-.19-.12 0-.24-.48-1.15-.09-2.17-.46-2.88.48a3.11 3.11 0 0 0 0 3.6c-.48.58-1.31 1.25-1.44 2.16 0 .29.14.95 0 1.2a9 9 0 0 1-1.2.24 11.56 11.56 0 0 1-.24 1.68 5.45 5.45 0 0 1 1 .24c.26.22.23 1 .48 1.2-.52 0-3.21.23-3.84.72s.31 2.89 0 3.84c-.17.5-.94 1-1.2 1.44a40 40 0 0 1-3.12 4.56c-.21.25-.84.48-1 1-.75 2.95.72 1.88 1.44 2.16.16.06.94.77 1.2 1-.44.94-1.53 2.42-.72 3.84.14.25.81.4 1 .72s-.34.17-.24.72c.23 1.41 1.81 1.44 3.12 1.44-.14.05-.91.71-1 .72-2.32.68-2-.33-2.88 1.92-1.07-1.42-1.87-1.76-4.08-2.16-.18.38-.44.46-.72.72.44 1.09.45 1.61 1 2.64a6.79 6.79 0 0 0-1.44 1c-.27.33-.19.92-.48 1.2s-.67.05-1 .24a6.14 6.14 0 0 0-1 1.2 3.16 3.16 0 0 1 0 1 5.29 5.29 0 0 0 2.88.24c-.13.26.11.43 0 .72l-.48.24c-.52.79-.27 1.26-.48 2.4a5.69 5.69 0 0 1 1 .48c.68.93 1 1.72 1.68 2.64-.47.31-1.75.87-1.92 1.44-.13.41.12.78 0 1.2a13.36 13.36 0 0 1 2.4.72c.14.07.5.66.72.72.42.1.77-.11 1.2 0-.14.55-.27 1.08-.48 1.92-.6 0-.67-.46-1.44-.24-.14 0-.5.61-.72.72.92 1.7-.11 1.24 2.4 1.44.23.64.49 1.37.72 1.92h.24c.19 1-.32 1.37-.24 2.4.06.86.82 2.59 1 3.36.1.55-.19 1.15 0 1.68 0 .1.42.22.48.48 2-.7.6.41 1.92-1.2.26.13.44-.11.72 0 .07 0 .56.68.72.72 1 .23 1.18-.44 2.16 0s-.11 1.19-.24 1.68c-.07.27.1.69 0 1 1.77 1.27 2.42 2 5 1.92a5.44 5.44 0 0 1 .48-1.2c.18-.26.78-.27 1-.48v2.64c.06.29 1.39 1.92 1.68 2.4.64-.05 1.26 0 1.92 0 .08-.16.34-.93.48-1 2.16-.49 2.74 1.86 3.84 2.16.68.18 1.07-.14 1.68-.24.23.29.35 1.07.72 1.2s.71-.14 1 0c0-.25.44-.38.48-.48.13-.41-.12-.79 0-1.2a10.1 10.1 0 0 1-1.68-.24c-.42-.19-.6-1.32-1-1.44h-.48c-.13-.26.13-.71 0-1 .17-.26.58-.67.72-1 .32.28 1 .33 1.2.72.12.23-.08.71 0 1s.75.66 1 1c.46-.09 1 .11 1.44 0 .83-.19 1-1.15 2.16-1.2 1.3-.06 2.52 1.19 4.32.72 1.22-.33.92-1.9 1.68-2.4s2-.14 3.12-.48c.26-.09.67-.59 1-.72a3.19 3.19 0 0 1 0-1c.13-.26.56-.17.72-.48 1.13.36 2.55 1.15 3.84.48.31-.17.46-1 .72-1.2s.69-.11 1-.24.72-.84 1-1a12.41 12.41 0 0 1 1.68-.48 5.92 5.92 0 0 0 .24-1.44c-.09-.37-.89-.69-1-1-.19-.7.31-.61.24-1.2a3.41 3.41 0 0 0 .72-1A5.15 5.15 0 0 0 135 79c.53-.26.37-.8.72-1.2a11.77 11.77 0 0 1 2.16-1.44 8.41 8.41 0 0 1-.24-2.16c.09-.54 1-1 1.2-1.44s.22-.89.48-1.44a4.62 4.62 0 0 1-.72-.48c-.11-.28.13-.46 0-.72 1.91-1.36 2.27-2.08 0-3.36 1.42-.74 2.66-1.5 4.08-2.16a4.3 4.3 0 0 1 0-1.2c-.28-.13-.7-.64-1-.72-1-.3-1.55 0-2.16-.48-.25-.22-.14-.79-.24-1.2-.53.19-.37-.67-.48-1 0 0 1.34.09 1 .24 1.55-.18 4.24-.37 2.88-2.4-.13-.19-.9-.29-1-.48-.15-.47.43-1.15.24-1.92-.16-.61-1-.73-1.2-1-.49-.75-.71-1 .24-1.44-.12-1.64-.2-1.58.72-2.4a3.28 3.28 0 0 1 .72 0 5.63 5.63 0 0 1 .24-1.68l1.44-.72a4.84 4.84 0 0 1-.48-2.64c.06-.19.68-.78.72-1 .09-.56-.33-.35-.24-.72l-1 .24c-.6 2-.37 2.71-1.68 1-.64.08-.56.31-1 .48v-1.92c1.92-.44 1.2-.11 2.16-1.44.21.15.47-.1.72 0s.3.83.48 1c1.11.79 2.6.25 3.6 0-.11-.47.13-1 0-1.44-.08-.28-.88-.84-1-1.2s-.14-1.32.24-1.2v-.48c-.05-.15-.69-.64-.72-.72s.06-.59 0-.72c1.78-.78 2-.91 2.88-2.64l.48-.48c.08-.52-.42-.92-.24-1.68.09-.42.89-.94 1-1.44s-.4-1.12-.24-1.92c.1-.48 1.09-1.29 1.2-1.68s-.09-1.15 0-1.68c-1.58-.92-1.5-.53-1.68-2.88.39-.25.14-.21.24-.72h.48v1.92s1.33 0 1-.24a5.18 5.18 0 0 1 .72-1.44 4.78 4.78 0 0 0 0-.72c-.1-.39-.71-.86-1-1.2.19-.32.55-.68.72-1a13.87 13.87 0 0 0 .72-1.2c.25-1.14-.46-2.09-.48-2.64 0-1 .58-1.45.48-2.64l-.48-.72c-.55-2.65-.12-2.24-2.64-2.88-.11.48-.37 1.37-.48 1.92-.46.12-.3-.21-.48.24-.84 0-1.9-.2-2.4-.24a9.55 9.55 0 0 0-.48-4.08c-.7-.16-1.88-.82-2.88-.48-.18.05-.46.59-.72.72a11.48 11.48 0 0 1 0 1.68h-.48c-.24-.5 0-.76-.24-1.2-.34-.59-1.55-1.11-1.68-1.92-.23-1.36.66-1.39.48-2.64a14.22 14.22 0 0 0-2.4-3.12c-1.33-.28-1.52.62-2.16 1s-1.69.62-2.4 1c.39 1.58 1.31 4.51-1.68 3.84-1.06-.24-.77-1-1.2-1.92-.07-.16-.69-.32-.72-.48-.22-1.1.58-2.06 0-3.12-.35-.62-1.21-.43-1.92-.72.09.1-.53.3-.57.44zm26.51 214.42a4.45 4.45 0 1 1-4.52 4.44 4.44 4.44 0 0 1 4.52-4.44zm0 .72a3.73 3.73 0 1 0 3.63 3.72 3.62 3.62 0 0 0-3.63-3.72zm-.95 6.3h-.79v-5.13h2c1.22 0 1.82.46 1.82 1.46a1.34 1.34 0 0 1-1.34 1.42l1.46 2.25h-.86l-1.37-2.23h-.89zm0-2.88h.93c1 0 1.27-.28 1.27-.84s-.24-.77-1.14-.77h-1.05z" fill="#f26735" data-name="Layer 1"/></g></svg>