<svg data-name="Layer 1" xmlns="http://www.w3.org/2000/svg" viewBox="0 0 720 107.48"><path d="M64.11 1.26L77.6 15.74v78.34l-13.49 13.4H7.41v-83H0V1.28zM36.32 84.74H48.1V24.46H36.32zM151.58 0l13 14.53v41.28l-10.45 7.86v.52l12 20.83h8.08v22.46h-27.82l-18.24-39.74h-5.78l.15 39.73H95.24V25.06h-6.52V0zM122.9 43.81h10.9V25.06h-10.9zM280.69.97v23.05h-8.3v83.46l-68.39-.15-11.34-11.34V23.43h-7.26V.97h35.7v84.05h24.39V23.43h-7.71V.97zm111.4-.45V83.9h6.52v23.5l-33.06.07v-55.8H365l-18.31 33.8h-.52l-19.79-33.28h-.52v31.72h4.89v23.5h-32.42V25.06h-6.52V.52h38.25l16.16 29.72h.52L363 .52zm52.48.89v82.42H457V68.56h25.57v38.91H417V25.06h-7.26V1.41zM528.77.3v83.68h7v23.42l-34.1.07v-83.3h-8V.3zm106.81.44l-.07 106.66H607l-25.5-53.59h-.5v30.17h5.48v23.42l-33.06.07V24.69h-6.45V.74h38.69L608 49.07h.52V24.69h-6.74V.74zm84.42.67v34.76h-27v-10.6h-11v17.72h26.76v23.87h-26.71v17.19H694V72.74h26v34.76h-65.52V25.06h-7.78V1.41z" fill="#532d80"/></svg>