<svg xmlns="http://www.w3.org/2000/svg" viewBox="0 0 377.8 71.7"><defs><style>.cls-1{fill:#3a5a98}</style></defs><g id="Layer_2" data-name="Layer 2"><g id="Find_Us_On_Facebook" data-name="Find Us On Facebook"><rect class="cls-1" x="306.1" width="71.7" height="71.7" rx="3.96" ry="3.96"/><path class="cls-1" d="M0 15h27.86v5.77H6.14v14.61h18v5.7h-18v19H0zm38.13 4.72c-2.67 0-3.9-2-3.9-4.26s1.23-4.26 3.9-4.26 3.9 2 3.9 4.26-1.23 4.26-3.9 4.26zm-3 40.35V26.86l5.92-.94v34.15zm36.03 0V39.28c0-5.7-2.17-7.65-6.86-7.65a13.27 13.27 0 0 0-8.66 3.61v24.83h-5.92V26.86l5.92-.94v5c3-3 6.93-5 10.76-5 6.71 0 10.68 4.26 10.68 11.4v22.75zm37.69-48.65l5.92-.94v49.59h-5.92V57c-2.38 2.24-5.34 4.11-9.24 4.11-9.31 0-14.73-7.51-14.73-17.47s6.93-17.75 16.82-17.75a25.53 25.53 0 0 1 7.15 1.11zm-7.36 19.85C94.78 31.27 91 36.75 91 43.54c0 7.29 3.68 12.13 9.81 12.13a12 12 0 0 0 8-3.18V33.65a11.42 11.42 0 0 0-7.32-2.38zM143.14 27v20.79c0 5.7 2.17 7.65 6.49 7.65a13.48 13.48 0 0 0 9-3.61V27h5.92v33.2l-5.92.94v-4.83a15.73 15.73 0 0 1-11.12 4.83c-6.35 0-10.32-4.26-10.32-11.4V27zm40.36 34.22a23.37 23.37 0 0 1-11.5-3.1l1.52-5.41a19.41 19.41 0 0 0 10.18 3.1c3.75 0 6.57-1.73 6.57-4.69 0-3.32-3.9-4.4-7.8-5.49-4.69-1.3-9.81-3.61-9.81-9.67s5.2-10 11.84-10a24.48 24.48 0 0 1 10.68 2.45l-1.52 5.41a21.92 21.92 0 0 0-9.45-2.45c-3.54 0-5.85 1.44-5.85 4.11 0 3.18 3.54 4.26 7.65 5.34 4.83 1.3 10 3.61 10 9.89s-5.28 10.51-12.51 10.51zm47.05-.07c-9.38 0-16-6.93-16-17.61s6.79-17.68 16.31-17.68 15.88 7 15.88 17.68-6.87 17.61-16.19 17.61zm.07-30c-6.57 0-10.18 5.12-10.18 12.27s3.82 12.34 10.32 12.34 10.18-5.05 10.18-12.2-3.82-12.37-10.31-12.37zm44.09 28.92V39.28c0-5.7-2.17-7.65-6.86-7.65a13.27 13.27 0 0 0-8.66 3.61v24.83h-5.92V26.86l5.92-.94v5c3-3 6.93-5 10.76-5 6.71 0 10.68 4.26 10.68 11.4v22.75z"/><path d="M364.89 43.93l1.39-10.82h-10.71V26.2c0-3.13.87-5.27 5.36-5.27h5.73v-9.67a76.84 76.84 0 0 0-8.35-.43c-8.26 0-13.92 5-13.92 14.3v8h-9.34v10.8h9.34V71.7h11.18V43.93z" fill="#fff"/></g></g></svg>