<svg xmlns="http://www.w3.org/2000/svg" width="250" height="100"><path d="M215.572 88.109H34.946L17.858 43.425c11.372 7.961 25.681 10.686 39.21 6.762 15.044-4.366 25.819-16.066 29.936-31.725 8.352 13.813 22.261 21.947 38.425 21.856 15.849-.091 29.773-8.319 37.982-21.73 4.215 15.412 15.474 27.29 30.873 31.69 13.302 3.793 26.91 1.153 37.823-6.732l-16.535 44.563m23.011-61.756c-11.776 18.065-29.575 20.617-42.31 16.981-16.298-4.659-27.068-19.393-27.453-37.547l-7.058-.987c-5.286 17.09-19.556 28.193-36.372 28.294-13.322.077-29.98-7.35-36.757-28.42l-7.043.987c-.637 18.902-10.558 32.954-26.53 37.589-16.189 4.694-33.751-1.957-43.702-16.542L5 30.032l24.092 62.974.884 2.32h190.622l.873-2.35L245 29.578l-6.417-3.225z"/><path d="M67.004 70.351c2.423 0 2.804.138 3.287-.415.42-.522.242-.8.212-2.739 0-2.117.237-2.601-.247-3.124-.415-.449-1.007-.449-1.797-.449H51.432s-.38 0-.592.173c-.173.178-.242.449-.242.695v5.168c0 .168.069.346.212.484.168.207.375.207.583.207h15.611m1.456 6.307l-16.896-.029c-.237 0-.479.029-.656.168-.208.178-.311.385-.311.695v5.929h-7.315l-.035-26.21H69.22c3.504 0 5.543-.385 7.107 1.273 1.802 1.915 1.491 3.263 1.491 8.051 0 2.078.276 3.707-1.042 5.197-1.214 1.392-2.596 1.15-2.596 1.639.035.444 1.525.276 2.498 1.417 1.105 1.387 1.002 2.048 1.002 3.4v5.232h-7.596v-3.983c0-1.318.143-1.802-.311-2.359-.489-.557-1.313-.42-1.313-.42zm16.748 6.763V57.246h29.062v5.75H93.598c-.207 0-.415 0-.656.212-.173.134-.242.38-.242.622v3.188c0 .213.222.385.355.519.178.148.395.148.637.148h19.916v5.02H93.49c-.208 0-.306.034-.513.143-.208.242-.277.316-.277.592v3.218c-.039.247.133.42.311.523a.896.896 0 0 0 .449.207h20.667v6.032H85.208m46.229-19.032c-.351-.765-.834-.661-1.461-.661-.588 0-.523 1.007-.523 1.732v17.897H122V57.211h13.594l7.142 16.052c.108.212.351.868.834.868.415 0 .622-.483.766-.799l7.314-16.086h13.628v26.11h-7.211v-18.14c0-1.283 0-1.564-.519-1.564-.523 0-.765 0-1.185.805l-9.813 18.899h-6.031l-9.082-18.968m69.382.208c0-.973-1.071-1.284-1.353-1.284l-4.472-.039h-13.421c-.522 0-1.11.069-1.49.454-.454.415-.454 1.036-.454 1.595l-.029 10.266c0 1.071.794 1.525 1.801 1.525h17.991c.805 0 1.397-.553 1.397-1.49l.03-11.027m5.306 17.369c-1.697 1.801-3.78 1.456-6.169 1.456-1.15 0-19.038.034-20.252 0-2.187 0-3.815.246-5.479-1.456-1.697-1.732-1.283-3.885-1.283-5.06 0-.8-.029-11.234-.029-12.068 0-1.875-.528-4.551 1.417-6.313 1.831-1.653 4.299-1.313 6.485-1.313h19.106c2.809 0 4.299-.315 6.136 1.348 1.767 1.668 1.387 3.781 1.353 5.864 0 .69.034 10.986.034 11.683.038 1.594.523 3.884-1.319 5.859z"/><path d="M212.873 60.538v-.923h.765c.321 0 .81-.035.81.419 0 .425-.267.514-.646.504h-.929m1.308.503c.593-.039.918-.286.918-.918 0-.789-.425-1.026-1.303-1.026h-1.634v3.366h.711v-1.422h.558l.75 1.422h.81l-.81-1.422zm-.731 2.839c1.718 0 3.119-1.397 3.119-3.104a3.127 3.127 0 0 0-3.119-3.13 3.115 3.115 0 0 0-3.119 3.13 3.108 3.108 0 0 0 3.119 3.104zm0-.735c-1.367 0-2.29-.987-2.29-2.369 0-1.397.923-2.395 2.29-2.395 1.328 0 2.295.997 2.295 2.395 0 1.381-.967 2.369-2.295 2.369z" fill="#231f20"/></svg>