<svg xmlns="http://www.w3.org/2000/svg" width="300" height="225"><path d="M141.57 103.932c0-3.352 2.604-6.072 5.809-6.072 3.207 0 5.81 2.72 5.81 6.072 0 3.351-2.604 6.073-5.81 6.073-3.205 0-5.808-2.72-5.808-6.073"/><path d="M132.337 103.932c0 8.696 6.74 15.735 15.04 15.735 8.31 0 15.037-7.038 15.037-15.735 0-2.152-.413-4.2-1.158-6.072h5.818c.552 1.921.837 3.965.837 6.072 0 11.872-9.193 21.484-20.534 21.484-11.342 0-20.537-9.612-20.537-21.484 0-2.108.295-4.15.838-6.072h5.817a16.445 16.445 0 0 0-1.158 6.072"/><path d="M122.01 103.932c0 14.666 11.35 26.54 25.369 26.54 14.01 0 25.37-11.872 25.37-26.54 0-2.083-.233-4.12-.67-6.072h5.391c.365 1.972.557 3.998.557 6.072 0 17.702-13.72 32.063-30.648 32.063-16.926 0-30.653-14.36-30.653-32.063 0-2.074.189-4.1.557-6.072h5.387a28.092 28.092 0 0 0-.66 6.072"/><path d="M111.234 103.932c0 20.888 16.186 37.813 36.143 37.813 19.958 0 36.139-16.925 36.139-37.813 0-2.066-.154-4.096-.459-6.072h5.112a45.88 45.88 0 0 1 .408 6.072c0 23.807-18.444 43.101-41.2 43.101-22.753 0-41.199-19.294-41.199-43.1 0-2.06.139-4.09.407-6.073h5.109a40.658 40.658 0 0 0-.46 6.072"/><path d="M97.826 103.932c0 28.631 22.186 51.836 49.551 51.836 27.37 0 49.55-23.206 49.55-51.836 0-2.048-.116-4.082-.336-6.072h5.75c.202 1.995.306 4.024.306 6.072 0 31.928-24.75 57.816-55.268 57.816-30.527 0-55.264-25.888-55.264-57.816 0-2.048.097-4.077.299-6.072h5.749a53.617 53.617 0 0 0-.337 6.072"/><path d="M87.05 103.932c0 34.863 27.015 63.112 60.329 63.112 33.321 0 60.324-28.249 60.324-63.112 0-2.04-.088-4.077-.28-6.072h5.519c.172 2.002.251 4.032.251 6.072 0 38.028-29.461 68.862-65.814 68.862-36.35 0-65.826-30.834-65.826-68.862 0-2.04.087-4.07.258-6.072h5.52a65.759 65.759 0 0 0-.28 6.072"/><path d="M76.503 103.932c0 40.951 31.728 74.147 70.874 74.147 39.142 0 70.882-33.196 70.882-74.147 0-2.04-.08-4.07-.232-6.072h5.505c.144 2.002.221 4.032.221 6.072 0 44.133-34.2 79.902-76.376 79.902-42.178 0-76.377-35.77-76.377-79.902 0-2.04.074-4.07.222-6.072h5.51a78.256 78.256 0 0 0-.23 6.072"/><path d="M66.167 103.932c0 46.921 36.36 84.965 81.21 84.965 44.853 0 81.209-38.044 81.209-84.965 0-2.04-.068-4.07-.203-6.072h5.288c.13 2.013.188 4.032.188 6.072 0 49.973-38.716 90.48-86.482 90.48-47.761 0-86.486-40.508-86.486-90.48 0-2.04.062-4.06.193-6.072h5.294a89.453 89.453 0 0 0-.211 6.072"/><path d="M55.836 103.932c0 52.892 40.984 95.771 91.541 95.771 50.552 0 91.541-42.88 91.541-95.77 0-2.035-.05-4.06-.18-6.073h5.288c.113 2.013.17 4.038.17 6.072 0 55.942-43.35 101.287-96.817 101.287-53.475 0-96.818-45.345-96.818-101.287 0-2.034.054-4.06.17-6.072h5.285a102.87 102.87 0 0 0-.18 6.072"/><path d="M45.5 103.932c0 58.867 45.615 106.584 101.877 106.584 56.271 0 101.877-47.717 101.877-106.584 0-2.034-.059-4.06-.166-6.072h5.506c.1 2.013.154 4.038.154 6.072 0 62.036-48.079 112.327-107.37 112.327-59.298 0-107.374-50.29-107.374-112.327 0-2.034.054-4.06.154-6.072h5.507a117.178 117.178 0 0 0-.165 6.072M32.956 8.237c2.256-.359 9.458 1.212 12.87 1.532 3.984.368 6.262.776 11.018.421 4.456-.355 13.846-1.356 14.604-.56.491.507-2.042 7.08-2.853 9.648-.427 1.333-2.358 7.443-2.616 7.654-.496.408-5.368.09-11.647-1.083-4.737-.89-9.902-1.074-12.284-.117-3.695 1.487-4.799 8.772-1.124 11.386 2.61 1.865 6.73 1.708 10.344 2.503 10.814 2.354 18.718 8.35 20.975 19.71 4.612-11.76 10.726-26.076 10.089-33.599-.355-4.205-3.866-11.41-3.45-12.213.303-.61 12.73-5.674 14.6-4.72 1.64.83 2.386 5.116 3.18 6.935 2.98 6.832 5.333 14.707 7.962 21.939 3.779 10.429 8.97 20.815 13.808 30.548.32.526.382.607.621-.656 2.24-12.052 3.592-24.935 4.422-39.61-3.594-.512-10.087-1.734-10.35-2.497-.268-.764.146-1.447.607-1.882 4.797-4.482 5.427-9.132 6.49-10.196 1.436-1.586 3.942.359 15.662-.346 11.17-.692 15.862-3.032 18.249-2.362 1.862.507 4.108 2.739 5.442 3.966 8.903 8.131 8.903 20.439.533 30.532-.947 1.127-2.296 2.318-3.322 3.337 3.716 1.124 5.66 3.001 7.573 5.553.923 1.234 2.008 3.118 2.713 4.582.985-13.04.737-41.384 1.258-42.072.34-.444 2.695-.835 3.468-.952 7.487-1.164 16.813-3.76 16.712-2.377 0 6.11-1.19 11.074-1.86 16.382-1.451 11.382-2.12 23.954-2.12 36.654.282-.535 5.152-6.743 9.024-18.606 1.529-4.704 5.957-15.74 5.436-21.242-.395-4.197-2.29-8.206-3.18-12.43-.188-.57 1.158-1.337 2.335-1.635 7.084-1.733 10.636-4.528 12.399-4.127.965.216 1.992 2.443 2.388 3.337 3.764 8.8 6.388 18.427 9.819 27.487 2.79 7.367 6.235 14.216 9.622 21.113.323.444.534-.019.576-.487.525-8.938 1.235-20.204-.11-28.945-.897-5.773-2.721-10.732-3.188-16.949.938-.736 2.937-1.38 5.164-1.877 4.763-1.069 6.815-1.81 10.567-3.096.646-.215 1.69-.333 1.595 1.16-.041 5.831 4.716 9.096 12.211 23.942 3.85 7.653 6.703 12.087 11.743 23.537.432.993.656 1.37.66.764 0-8.93.454-17.982-.793-26.094-.848-5.525-2.38-11.657-2.66-12.888-.391-1.806-.547-2.687-.283-3.454.243-.71 7.406-2.836 13.965-4.816 2.286-.678 2.58.589 3 1.56 8.765 19.082 4.82 47.623-.488 69.832-.216.794-.436 2.394-1.866 2.757-2.883.76-11.498 3.562-15.005 4.33-.64.144-.91-.215-1.214-.902-1.88-4.17-3.496-8.503-5.538-12.825-3.355-7.106-9.218-20.118-9.819-19.992 0 9.42.233 20.5-.153 29.058-.019.426.053 1.383-.643 1.765-.674.375-11.085 3.2-17.913 4.344-.233.026-1 .345-1.1-.592-.105-.945-.074-2.026-.074-3.713-3.665 2.698-3.988 2.06-6.001-1.12-3.657-5.782-6.01-12.055-6.37-12.074-.853-.04-6.84 4.012-13.107 5.722-2.097.576-6.746 1.452-6.864 1.81-.885 2.718-5.726 9.749-6.706 9.789-1.03.043-4.904-5.234-7.502-7.282.437 2.933-.844 3.01-2.057 3.18-7.352 1.019-19.526 4.24-19.908 3.544-.418-.763.188-4.824.536-7.223.25-.87-.162-.625-.931.211-1.55 1.649-3.827 3.293-5.112 3.886-4.551 2.054-8.085 3.446-12.803 3.958-10.916 1.177-20.32-.88-28.933-2.737-.538-.126-.146-1.422-.272-1.975-1.992 1.46-4.222 4.01-5.574 3.05-3.124-4.843-5.184-10.409-8.362-15.072-3.556 1.866-8.22 3.747-12.341 5.071-2.25.715-5.834 1.074-7.434 1.941-.607.328-.865 1.474-1.665 2.71-2.075 3.199-5.226 7.051-6.163 6.672-1.198-.49-6.233-6.187-8.826-9.655-4.344 2.723-7.807 4.735-12.812 5.836-14.084 3.067-30.772-1.344-39.023-7.57-1.215-.862-.636-2.165-.42-2.533 2.111-3.76 3.396-4.888 4.937-7.952 1.287-2.59 1.93-4.491 3.458-6.733.442-.74.979-.418 1.36-.098 6.36 5.206 10.942 9.864 22.522 8.772 2.88-.269 7.066-2.164 7.957-4.716 3.455-9.949-13.483-11.768-19.636-13.61-8.062-2.405-11.65-6.658-13.808-12.008-.45-1.127-.312-5.399 1.299-9.303 4.438-10.564 9.166-22.32 12.51-22.846m110.428 18.606c-1.523.032-4.214.781-4.509 1.398v15.82c.391 0 .91.057 1.323 0 7.737-1.11 14.435-17.425 3.186-17.218M91.75 53.228c-.395.068-2.154 5.966-3.05 9.163 3.113-1.32 6.004-2.269 6.004-2.269s-2.554-6.957-2.954-6.894m117.957-.145c-.29-.008-3.122 8.832-2.893 9.025.27.22 4.843-1.622 5.854-1.936.223-.385-2.62-7.209-2.96-7.089m-70.57 2.782c-.265 6.526-1.594 11.8-1.594 18.465 2.283.32 4.246.656 6.637 0 9.862-2.749 11.07-14.414 2.05-17.981-4.99-1.998-6.787-.946-7.092-.484"/></svg>