<?xml version="1.0" encoding="UTF-8" standalone="no"?>
<!-- Generator: Adobe Illustrator 13.0.0, SVG Export Plug-In . SVG Version: 6.00 Build 14948)  -->

<svg
   xmlns:dc="http://purl.org/dc/elements/1.1/"
   xmlns:cc="http://creativecommons.org/ns#"
   xmlns:rdf="http://www.w3.org/1999/02/22-rdf-syntax-ns#"
   xmlns:svg="http://www.w3.org/2000/svg"
   xmlns="http://www.w3.org/2000/svg"
   xmlns:sodipodi="http://sodipodi.sourceforge.net/DTD/sodipodi-0.dtd"
   xmlns:inkscape="http://www.inkscape.org/namespaces/inkscape"
   version="1.1"
   id="Layer_1"
   x="0px"
   y="0px"
   width="300"
   height="225"
   viewBox="0 0 300 225"
   enable-background="new 0 0 300 300"
   xml:space="preserve"
   inkscape:version="0.48.5 r10040"
   sodipodi:docname="Sabian_logo.svg"><metadata
   id="metadata3049"><rdf:RDF><cc:Work
       rdf:about=""><dc:format>image/svg+xml</dc:format><dc:type
         rdf:resource="http://purl.org/dc/dcmitype/StillImage" /></cc:Work></rdf:RDF></metadata><defs
   id="defs3047">
	
	
	
	
	
	
	
	
	
	
	
	
</defs><sodipodi:namedview
   pagecolor="#ffffff"
   bordercolor="#666666"
   borderopacity="1"
   objecttolerance="10"
   gridtolerance="10"
   guidetolerance="10"
   inkscape:pageopacity="0"
   inkscape:pageshadow="2"
   inkscape:window-width="1366"
   inkscape:window-height="706"
   id="namedview3045"
   showgrid="false"
   inkscape:zoom="1.73"
   inkscape:cx="150"
   inkscape:cy="150"
   inkscape:window-x="-8"
   inkscape:window-y="-8"
   inkscape:window-maximized="1"
   inkscape:current-layer="Layer_1" />
<g
   id="g3065"
   transform="matrix(1.2284353,0,0,1.2284353,-33.281136,-101.05936)"><path
     d="m 142.337,166.872 c 0,-2.729 2.119,-4.943 4.728,-4.943 2.611,0 4.73,2.215 4.73,4.943 0,2.728 -2.12,4.944 -4.73,4.944 -2.609,0 -4.728,-2.215 -4.728,-4.944"
     id="path3023"
     inkscape:connector-curvature="0" /><path
     d="m 134.82,166.872 c 0,7.079 5.487,12.809 12.244,12.809 6.764,0 12.24,-5.729 12.24,-12.809 0,-1.752 -0.336,-3.419 -0.942,-4.943 h 4.736 c 0.449,1.564 0.681,3.228 0.681,4.943 0,9.664 -7.483,17.489 -16.715,17.489 -9.233,0 -16.718,-7.825 -16.718,-17.489 0,-1.716 0.24,-3.379 0.682,-4.943 h 4.735 c -0.604,1.524 -0.943,3.191 -0.943,4.943"
     id="path3025"
     inkscape:connector-curvature="0" /><path
     d="m 126.413,166.872 c 0,11.939 9.24,21.604 20.652,21.604 11.405,0 20.652,-9.664 20.652,-21.604 0,-1.696 -0.189,-3.354 -0.545,-4.943 h 4.389 c 0.297,1.605 0.453,3.255 0.453,4.943 0,14.41 -11.169,26.101 -24.949,26.101 -13.778,0 -24.953,-11.69 -24.953,-26.101 0,-1.688 0.154,-3.338 0.454,-4.943 h 4.385 c -0.352,1.59 -0.538,3.247 -0.538,4.943"
     id="path3027"
     inkscape:connector-curvature="0" /><path
     d="m 117.642,166.872 c 0,17.004 13.176,30.781 29.422,30.781 16.246,0 29.418,-13.777 29.418,-30.781 0,-1.682 -0.125,-3.334 -0.373,-4.943 h 4.161 c 0.216,1.615 0.332,3.268 0.332,4.943 0,19.38 -15.014,35.086 -33.538,35.086 -18.522,0 -33.538,-15.706 -33.538,-35.086 0,-1.676 0.113,-3.328 0.331,-4.943 h 4.159 c -0.243,1.609 -0.374,3.261 -0.374,4.943"
     id="path3029"
     inkscape:connector-curvature="0" /><path
     d="m 106.727,166.872 c 0,23.307 18.06,42.197 40.337,42.197 22.28,0 40.336,-18.891 40.336,-42.197 0,-1.667 -0.095,-3.323 -0.274,-4.943 h 4.681 c 0.164,1.624 0.249,3.276 0.249,4.943 0,25.991 -20.148,47.065 -44.991,47.065 -24.85,0 -44.987,-21.074 -44.987,-47.065 0,-1.667 0.079,-3.319 0.243,-4.943 h 4.68 c -0.185,1.62 -0.274,3.276 -0.274,4.943"
     id="path3031"
     inkscape:connector-curvature="0" /><path
     d="m 97.955,166.872 c 0,28.38 21.991,51.376 49.11,51.376 27.125,0 49.107,-22.996 49.107,-51.376 0,-1.661 -0.072,-3.319 -0.229,-4.943 h 4.493 c 0.14,1.63 0.205,3.282 0.205,4.943 0,30.956 -23.983,56.057 -53.576,56.057 -29.591,0 -53.585,-25.101 -53.585,-56.057 0,-1.661 0.071,-3.313 0.21,-4.943 h 4.494 c -0.151,1.624 -0.229,3.282 -0.229,4.943"
     id="path3033"
     inkscape:connector-curvature="0" /><path
     d="m 89.369,166.872 c 0,33.336 25.828,60.359 57.695,60.359 31.863,0 57.701,-27.023 57.701,-60.359 0,-1.661 -0.066,-3.313 -0.189,-4.943 h 4.481 c 0.117,1.63 0.18,3.282 0.18,4.943 0,35.926 -27.84,65.044 -62.173,65.044 -34.335,0 -62.175,-29.118 -62.175,-65.044 0,-1.661 0.061,-3.313 0.181,-4.943 h 4.485 c -0.127,1.63 -0.186,3.282 -0.186,4.943"
     id="path3035"
     inkscape:connector-curvature="0" /><path
     d="m 80.955,166.872 c 0,38.196 29.599,69.165 66.109,69.165 36.512,0 66.107,-30.969 66.107,-69.165 0,-1.661 -0.055,-3.313 -0.165,-4.943 h 4.305 c 0.106,1.639 0.153,3.282 0.153,4.943 0,40.68 -31.517,73.655 -70.4,73.655 -38.88,0 -70.404,-32.976 -70.404,-73.655 0,-1.661 0.051,-3.305 0.157,-4.943 h 4.31 c -0.111,1.63 -0.172,3.282 -0.172,4.943"
     id="path3037"
     inkscape:connector-curvature="0" /><path
     d="m 72.545,166.872 c 0,43.056 33.363,77.962 74.519,77.962 41.151,0 74.518,-34.906 74.518,-77.962 0,-1.656 -0.04,-3.305 -0.146,-4.943 h 4.304 c 0.092,1.639 0.139,3.287 0.139,4.943 0,45.539 -35.29,82.452 -78.814,82.452 -43.531,0 -78.814,-36.913 -78.814,-82.452 0,-1.656 0.044,-3.305 0.139,-4.943 h 4.302 c -0.097,1.638 -0.147,3.287 -0.147,4.943"
     id="path3039"
     inkscape:connector-curvature="0" /><path
     d="m 64.131,166.872 c 0,47.92 37.133,86.764 82.933,86.764 45.807,0 82.932,-38.844 82.932,-86.764 0,-1.656 -0.048,-3.305 -0.135,-4.943 h 4.482 c 0.081,1.639 0.125,3.287 0.125,4.943 0,50.5 -39.138,91.439 -87.404,91.439 -48.271,0 -87.407,-40.939 -87.407,-91.439 0,-1.656 0.044,-3.305 0.126,-4.943 h 4.483 c -0.085,1.638 -0.135,3.287 -0.135,4.943"
     id="path3041"
     inkscape:connector-curvature="0" /><path
     d="m 53.92,88.972 c 1.836,-0.292 7.699,0.987 10.476,1.247 3.244,0.3 5.098,0.632 8.97,0.343 3.627,-0.289 11.27,-1.104 11.888,-0.457 0.4,0.413 -1.662,5.763 -2.322,7.854 -0.348,1.085 -1.92,6.059 -2.13,6.231 -0.404,0.332 -4.37,0.073 -9.481,-0.882 -3.856,-0.724 -8.061,-0.874 -10,-0.095 -3.008,1.21 -3.906,7.141 -0.915,9.269 2.125,1.518 5.479,1.39 8.421,2.037 8.803,1.916 15.237,6.797 17.074,16.045 3.755,-9.573 8.732,-21.227 8.213,-27.351 -0.289,-3.423 -3.147,-9.288 -2.808,-9.942 0.246,-0.497 10.362,-4.619 11.884,-3.843 1.336,0.676 1.943,4.165 2.59,5.646 2.426,5.562 4.341,11.972 6.481,17.859 3.076,8.49 7.302,16.945 11.24,24.868 0.26,0.428 0.311,0.494 0.506,-0.534 1.823,-9.811 2.924,-20.298 3.599,-32.244 -2.925,-0.417 -8.211,-1.412 -8.425,-2.033 -0.218,-0.622 0.119,-1.178 0.494,-1.532 3.905,-3.649 4.418,-7.434 5.284,-8.3 1.168,-1.291 3.208,0.292 12.749,-0.282 9.092,-0.563 12.912,-2.468 14.855,-1.923 1.516,0.413 3.344,2.23 4.43,3.229 7.248,6.619 7.248,16.638 0.434,24.854 -0.771,0.918 -1.869,1.887 -2.704,2.717 3.025,0.915 4.607,2.443 6.165,4.52 0.751,1.005 1.634,2.538 2.208,3.73 0.802,-10.615 0.6,-33.688 1.024,-34.248 0.277,-0.362 2.194,-0.68 2.823,-0.775 6.095,-0.948 13.687,-3.061 13.605,-1.935 0,4.973 -0.969,9.014 -1.514,13.335 -1.182,9.266 -1.726,19.5 -1.726,29.838 0.229,-0.435 4.194,-5.489 7.346,-15.146 1.244,-3.829 4.849,-12.813 4.425,-17.292 -0.322,-3.416 -1.865,-6.68 -2.589,-10.118 -0.153,-0.464 0.943,-1.089 1.901,-1.331 5.767,-1.411 8.658,-3.686 10.093,-3.36 0.786,0.176 1.622,1.989 1.944,2.717 3.064,7.164 5.2,15 7.993,22.375 2.271,5.997 5.076,11.573 7.833,17.187 0.263,0.362 0.435,-0.015 0.469,-0.396 0.427,-7.276 1.005,-16.447 -0.089,-23.563 -0.731,-4.699 -2.216,-8.736 -2.596,-13.797 0.764,-0.599 2.391,-1.123 4.204,-1.528 3.877,-0.87 5.548,-1.473 8.602,-2.52 0.526,-0.175 1.375,-0.271 1.298,0.944 -0.033,4.747 3.839,7.405 9.941,19.49 3.134,6.23 5.456,9.839 9.559,19.16 0.352,0.808 0.534,1.115 0.538,0.622 0,-7.27 0.369,-14.638 -0.646,-21.242 -0.691,-4.497 -1.938,-9.489 -2.165,-10.491 -0.319,-1.47 -0.446,-2.187 -0.231,-2.812 0.198,-0.578 6.029,-2.308 11.368,-3.92 1.861,-0.552 2.1,0.479 2.442,1.27 7.135,15.533 3.924,38.767 -0.397,56.846 -0.176,0.646 -0.355,1.949 -1.519,2.244 -2.347,0.619 -9.36,2.9 -12.215,3.525 -0.521,0.117 -0.74,-0.175 -0.988,-0.734 -1.531,-3.394 -2.846,-6.922 -4.508,-10.44 -2.731,-5.785 -7.504,-16.377 -7.993,-16.275 0,7.668 0.189,16.689 -0.125,23.655 -0.015,0.347 0.043,1.126 -0.523,1.437 -0.549,0.305 -9.024,2.604 -14.582,3.536 -0.19,0.021 -0.815,0.281 -0.896,-0.482 -0.085,-0.769 -0.06,-1.649 -0.06,-3.023 -2.983,2.197 -3.246,1.677 -4.885,-0.911 -2.977,-4.707 -4.893,-9.814 -5.185,-9.829 -0.695,-0.033 -5.569,3.266 -10.67,4.658 -1.707,0.469 -5.492,1.182 -5.588,1.474 -0.72,2.212 -4.661,7.935 -5.459,7.968 -0.838,0.035 -3.992,-4.261 -6.107,-5.928 0.356,2.388 -0.687,2.45 -1.674,2.589 -5.985,0.829 -15.895,3.451 -16.206,2.885 -0.34,-0.621 0.153,-3.927 0.436,-5.88 0.204,-0.709 -0.132,-0.509 -0.758,0.172 -1.261,1.342 -3.115,2.68 -4.161,3.163 -3.705,1.672 -6.582,2.805 -10.422,3.222 -8.886,0.958 -16.542,-0.717 -23.553,-2.228 -0.438,-0.103 -0.119,-1.158 -0.221,-1.608 -1.622,1.188 -3.437,3.265 -4.538,2.483 -2.543,-3.942 -4.22,-8.473 -6.807,-12.269 -2.895,1.519 -6.692,3.05 -10.046,4.128 -1.832,0.582 -4.749,0.874 -6.052,1.58 -0.494,0.267 -0.704,1.2 -1.355,2.206 -1.689,2.604 -4.254,5.74 -5.017,5.431 -0.975,-0.399 -5.074,-5.036 -7.185,-7.859 -3.536,2.216 -6.355,3.854 -10.429,4.75 -11.465,2.497 -25.05,-1.094 -31.767,-6.162 -0.989,-0.702 -0.517,-1.762 -0.342,-2.062 1.719,-3.061 2.765,-3.979 4.019,-6.473 1.048,-2.109 1.572,-3.656 2.815,-5.481 0.36,-0.603 0.797,-0.34 1.108,-0.08 5.176,4.238 8.907,8.03 18.333,7.141 2.344,-0.219 5.752,-1.762 6.478,-3.839 2.812,-8.099 -10.976,-9.58 -15.985,-11.08 -6.563,-1.957 -9.484,-5.419 -11.24,-9.774 -0.366,-0.918 -0.254,-4.395 1.057,-7.573 3.613,-8.6 7.462,-18.17 10.184,-18.598 m 89.893,15.146 c -1.24,0.026 -3.43,0.636 -3.67,1.138 v 12.878 c 0.318,0 0.741,0.047 1.077,0 6.298,-0.904 11.75,-14.184 2.593,-14.016 m -42.031,21.479 c -0.322,0.055 -1.754,4.856 -2.483,7.459 2.534,-1.075 4.887,-1.847 4.887,-1.847 0,0 -2.079,-5.664 -2.404,-5.612 m 96.022,-0.118 c -0.237,-0.007 -2.542,7.189 -2.355,7.346 0.22,0.179 3.942,-1.32 4.765,-1.576 0.182,-0.313 -2.133,-5.868 -2.41,-5.77 m -57.446,2.264 c -0.216,5.313 -1.298,9.606 -1.298,15.032 1.858,0.26 3.456,0.534 5.403,0 8.028,-2.238 9.011,-11.734 1.669,-14.638 -4.062,-1.626 -5.525,-0.77 -5.774,-0.394"
     id="path3043"
     inkscape:connector-curvature="0" /></g>
</svg>