<svg xmlns="http://www.w3.org/2000/svg" viewBox="0 0 169.6 94.44"><g data-name="Layer 2"><path d="M14.6 10.84l10.1 32.3-2.2 7.5H12.3L0 10.84zm19.9 0l-8.1 26.7-8.5-26.7h16.6zm34.2 0h12.6v15.1l-12.6-15.1zm0 39.8l12.6-15.1v15.1zm-1.2 0c-5.3-.4-9.2-2.3-11.9-5.7s-4-8.1-4-14.2 1.3-10.8 4-14.2 6.7-5.3 11.9-5.7v39.8zm-28.6-39.9h6.9v83.7h-6.9v-83.7zm-22 83.7h-14v-39.8h13.9v39.8zm1.1-39.8h13.8v15.3L18 54.64zm8.6 27.3l-8.7-8.2 8.7-8.2v16.4zM69 94.44v-39.8a1.7 1.7 0 0 0 .7-.1h1.1c4.1 0 7.2.8 9.1 2.5s3 4.2 3 7.6-.9 5.8-2.8 7.5-4.6 2.5-8.3 2.5c-.4 0-1.1 0-2.2-.1h-.1l15.8 19.9zm-17.5 0v-39.8h14.2v39.8zm67.4-39.8v18.8l-9.5-18.8h9.5zm-24.1 39.8v-39.8H109v39.8zM85 54.64h9.4L85 73.44v-18.8zm36.5 39.8v-39.8h14.1v16.7h3.6v-16.7h14.2v39.8h-14.2v-19.5h-3.6v19.5h-14.1zM39 7.84h6.9c3.4-10.4-10.6-10.5-6.9 0zm123.7 50.3h-1.5v2.8h1.5a4.18 4.18 0 0 0 1.8-.3 1.46 1.46 0 0 0 0-2.2 6.62 6.62 0 0 0-1.8-.3zm.2-.8a5.51 5.51 0 0 1 2.5.5 2 2 0 0 1 .8 1.7 2.39 2.39 0 0 1-.5 1.4 2.35 2.35 0 0 1-1.4.7l1.8 3.6h-1.4l-1.7-3.5h-1.9v3.5h-1.2v-7.9zm5.9 4.2a6.87 6.87 0 0 0-.5-2.4 5.33 5.33 0 0 0-1.3-2 6.25 6.25 0 0 0-2-1.3 6 6 0 0 0-2.4-.5 5.87 5.87 0 0 0-2.3.4 6.25 6.25 0 0 0-2 1.3 6.61 6.61 0 0 0-1.4 2 6.35 6.35 0 0 0-.5 2.3 4.56 4.56 0 0 0 .5 2.3 8.58 8.58 0 0 0 1.3 2 9 9 0 0 0 2 1.4 5.93 5.93 0 0 0 2.3.5 6.87 6.87 0 0 0 2.4-.5 5.58 5.58 0 0 0 2-1.4 5 5 0 0 0 1.3-1.9 3.34 3.34 0 0 0 .6-2.2zm-6.1-7a8.08 8.08 0 0 1 2.7.5 5.41 5.41 0 0 1 2.2 1.5 10.71 10.71 0 0 1 1.5 2.2 7.63 7.63 0 0 1 .5 2.7 8.57 8.57 0 0 1-.5 2.7 6.17 6.17 0 0 1-1.5 2.2 7 7 0 0 1-4.9 2 7.51 7.51 0 0 1-2.6-.5 8.55 8.55 0 0 1-2.2-1.5 6.17 6.17 0 0 1-1.5-2.2 5.75 5.75 0 0 1-.5-2.6 7.51 7.51 0 0 1 .5-2.6 9.13 9.13 0 0 1 1.5-2.3 8.55 8.55 0 0 1 2.2-1.5 5.83 5.83 0 0 1 2.6-.6z" data-name="Layer 1"/></g></svg>