<svg xmlns="http://www.w3.org/2000/svg" version="1" width="456.781" height="103.375" viewBox="0 0 456.783 103.377"><path d="M51.688 0C38.154 0 24.694 5.557 15.124 15.125 5.557 24.694 0 38.155 0 51.687 0 65.22 5.557 78.681 15.125 88.25c9.569 9.569 23.03 15.125 36.563 15.125 13.532 0 26.993-5.555 36.562-15.125 9.568-9.568 15.125-23.03 15.125-36.563 0-13.531-5.557-26.993-15.125-36.562C78.681 5.557 65.22 0 51.687 0zm0 2.187c12.955 0 25.837 5.34 35 14.5 9.161 9.161 14.5 22.044 14.5 35-.002 12.956-5.34 25.84-14.5 35-9.163 9.161-22.044 14.5-35 14.5-12.957 0-25.84-5.339-35-14.5-9.162-9.16-14.5-22.044-14.5-35s5.339-25.839 14.5-35c9.16-9.16 22.043-14.5 35-14.5zm0 5.594c-11.495 0-22.904 4.747-31.032 12.875-8.128 8.127-12.875 19.537-12.875 31.031 0 11.495 4.747 22.905 12.875 31.032 8.128 8.128 19.538 12.875 31.032 12.875 11.493 0 22.933-4.747 31.062-12.875 8.127-8.127 12.844-19.537 12.844-31.032 0-11.493-4.717-22.904-12.844-31.03C74.621 12.527 63.181 7.78 51.687 7.78zm0 2.281c.156 0 .309.033.437.125.128.091.23.227.281.375l3.688 10.407c.089.255.084.555 0 .812a1.214 1.214 0 0 1-.469.625 3.91 3.91 0 0 0-1.438 1.813 3.927 3.927 0 0 0-.124 2.312 3.82 3.82 0 0 0 1.218 1.938 9.731 9.731 0 0 1 2.5 3.312 9.775 9.775 0 0 1 .907 4.063v3.718L76.968 29l2.282 3.937-20.563 11.844v2.875l2.47 1.406L81.718 37.22l2.25 3.906-18.281 10.562 3.218 1.875a9.66 9.66 0 0 1 3.063 2.782 9.837 9.837 0 0 1 1.625 3.843 3.79 3.79 0 0 0 1.094 2c.554.544 1.264.935 2.03 1.063.769.128 1.579.02 2.282-.313a1.21 1.21 0 0 1 .781-.093c.264.056.51.2.688.406l7.187 8.375a.817.817 0 0 1 .188.437.712.712 0 0 1-.094.438.776.776 0 0 1-.344.312.796.796 0 0 1-.469.063l-10.843-2.031a1.207 1.207 0 0 1-.688-.375c-.18-.201-.323-.481-.344-.75a3.822 3.822 0 0 0-.843-2.125 3.888 3.888 0 0 0-1.938-1.25 3.803 3.803 0 0 0-2.281.062 9.763 9.763 0 0 1-4.125.531 9.842 9.842 0 0 1-3.969-1.28l-3.218-1.845v21.125h-4.532v-23.75l-2.468-1.406-2.47 1.406v23.75h-4.53V63.812l-3.22 1.844a9.837 9.837 0 0 1-3.968 1.281 9.759 9.759 0 0 1-4.125-.53 3.803 3.803 0 0 0-2.281-.063 3.88 3.88 0 0 0-1.938 1.25c-.494.6-.782 1.35-.843 2.125a1.31 1.31 0 0 1-.313.75c-.18.2-.453.326-.719.375l-10.843 2.031a.79.79 0 0 1-.813-.375.728.728 0 0 1-.094-.438.817.817 0 0 1 .188-.437l7.187-8.375a1.25 1.25 0 0 1 .688-.406 1.21 1.21 0 0 1 .781.093 3.883 3.883 0 0 0 2.281.313c.767-.129 1.476-.518 2.032-1.063a3.793 3.793 0 0 0 1.093-2 9.8 9.8 0 0 1 1.625-3.843 9.758 9.758 0 0 1 3.063-2.813l3.218-1.844-18.28-10.562 2.25-3.906 20.562 11.843 2.468-1.406v-2.875L24.125 32.937 26.406 29l18.282 10.562v-3.718c0-1.396.322-2.794.906-4.063a9.706 9.706 0 0 1 2.5-3.312 3.83 3.83 0 0 0 1.218-1.938 3.919 3.919 0 0 0-.124-2.312 3.904 3.904 0 0 0-1.438-1.813 1.215 1.215 0 0 1-.469-.625 1.307 1.307 0 0 1 .032-.812l3.656-10.407a.789.789 0 0 1 .281-.375.74.74 0 0 1 .438-.125zm0 22.688a2.5 2.5 0 0 0-1.75.719 2.507 2.507 0 0 0-.72 1.75v6.968l2.47 1.407 2.468-1.407V35.22c0-.646-.261-1.293-.718-1.75a2.505 2.505 0 0 0-1.75-.719zm0 15.656l-2.844 1.656v3.282l2.843 1.625 2.844-1.625v-3.282l-2.843-1.656zm-9.47 5.906l-6.03 3.47a2.5 2.5 0 0 0-1.157 1.5 2.497 2.497 0 0 0 .25 1.874c.322.56.876.99 1.5 1.156a2.487 2.487 0 0 0 1.875-.25l6.032-3.468v-2.875l-2.47-1.407zm18.938 0l-2.468 1.407v2.875l6.03 3.468c.56.325 1.25.42 1.876.25a2.508 2.508 0 0 0 1.5-1.156c.324-.56.418-1.25.25-1.875a2.502 2.502 0 0 0-1.156-1.5l-6.032-3.469zm51.032-45.687l16.75 52.812V94.75h16.75V59.719l17.375-51.094h-14.125l-11.375 33.562L127.25 8.625h-15.063zm61.656 0l-15.75 86.125h13.969l3.343-20.031h17.375L196 94.75h15.406L197.187 8.625h-23.343zm44.687 0V94.75h13.531V29.812l11.5 56.47h12.625l10.22-57.376V94.75h15.843V8.625h-24.531l-7.25 40.969-8.375-40.969H218.53zm86.344 0l-15.75 86.125h13.969l3.344-20.031h17.375l3.25 20.031h15.375l-14.22-86.125h-23.343zm44.719 0V94.75h15.062V56.937h16.531V94.75h15.407V8.625h-15.406v33h-16.532v-33h-15.062zm69.656 0L403.5 94.75h13.969l3.344-20.031h17.343l3.25 20.031h15.375L442.562 8.625H419.25zM184.219 21.844l6.219 38.5h-12.625l6.406-38.5zm131.031 0l6.25 38.5h-12.656l6.406-38.5zm114.375 0l6.219 38.5h-12.656l6.437-38.5z"/></svg>