<?xml version="1.0" encoding="iso-8859-1"?>
<!-- Generator: Adobe Illustrator 14.0.0, SVG Export Plug-In . SVG Version: 6.00 Build 43363)  -->
<!DOCTYPE svg PUBLIC "-//W3C//DTD SVG 1.1//EN" "http://www.w3.org/Graphics/SVG/1.1/DTD/svg11.dtd">
<svg version="1.1" id="Layer_1" xmlns="http://www.w3.org/2000/svg" xmlns:xlink="http://www.w3.org/1999/xlink" x="0px" y="0px"
	 width="250px" height="100px" viewBox="0 0 250 100" style="enable-background:new 0 0 250 100;" xml:space="preserve">
<g>
	<path d="M215.572,88.109H34.946L17.858,43.425c11.372,7.961,25.681,10.686,39.21,6.762c15.044-4.366,25.819-16.066,29.936-31.725
		c8.352,13.813,22.261,21.947,38.425,21.856c15.849-0.091,29.773-8.319,37.982-21.73c4.215,15.412,15.474,27.29,30.873,31.69
		c13.302,3.793,26.91,1.153,37.823-6.732L215.572,88.109 M238.583,26.353c-11.776,18.065-29.575,20.617-42.31,16.981
		c-16.298-4.659-27.068-19.393-27.453-37.547L161.762,4.8c-5.286,17.09-19.556,28.193-36.372,28.294
		c-13.322,0.077-29.98-7.35-36.757-28.42l-7.043,0.987c-0.637,18.902-10.558,32.954-26.53,37.589
		c-16.189,4.694-33.751-1.957-43.702-16.542L5,30.032l24.092,62.974l0.884,2.32h190.622l0.873-2.35L245,29.578L238.583,26.353z"/>
	<path d="M67.004,70.351c2.423,0,2.804,0.138,3.287-0.415c0.42-0.522,0.242-0.8,0.212-2.739c0-2.117,0.237-2.601-0.247-3.124
		c-0.415-0.449-1.007-0.449-1.797-0.449H51.432c0,0-0.38,0-0.592,0.173c-0.173,0.178-0.242,0.449-0.242,0.695v5.168
		c0,0.168,0.069,0.346,0.212,0.484c0.168,0.207,0.375,0.207,0.583,0.207H67.004 M68.46,76.658l-16.896-0.029
		c-0.237,0-0.479,0.029-0.656,0.168c-0.208,0.178-0.311,0.385-0.311,0.695v5.929h-7.315l-0.035-26.21H69.22
		c3.504,0,5.543-0.385,7.107,1.273c1.802,1.915,1.491,3.263,1.491,8.051c0,2.078,0.276,3.707-1.042,5.197
		c-1.214,1.392-2.596,1.15-2.596,1.639c0.035,0.444,1.525,0.276,2.498,1.417c1.105,1.387,1.002,2.048,1.002,3.4v5.232h-7.596v-3.983
		c0-1.318,0.143-1.802-0.311-2.359C69.284,76.521,68.46,76.658,68.46,76.658z"/>
	<path d="M85.208,83.421V57.246h29.062v5.75H93.598c-0.207,0-0.415,0-0.656,0.212c-0.173,0.134-0.242,0.38-0.242,0.622v3.188
		c0,0.213,0.222,0.385,0.355,0.519c0.178,0.148,0.395,0.148,0.637,0.148h19.916v5.02H93.49c-0.208,0-0.306,0.034-0.513,0.143
		C92.769,73.09,92.7,73.164,92.7,73.44v3.218c-0.039,0.247,0.133,0.42,0.311,0.523c0.138,0.104,0.242,0.173,0.449,0.207h20.667
		v6.032H85.208"/>
	<path d="M131.437,64.388c-0.351-0.765-0.834-0.661-1.461-0.661c-0.588,0-0.523,1.007-0.523,1.732v17.897h-7.453V57.211h13.594
		l7.142,16.052c0.108,0.212,0.351,0.868,0.834,0.868c0.415,0,0.622-0.483,0.766-0.799l7.314-16.086h13.628v26.11h-7.211v-18.14
		c0-1.283,0-1.564-0.519-1.564c-0.523,0-0.765,0-1.185,0.805l-9.813,18.899h-6.031L131.437,64.388"/>
	<path d="M200.819,64.596c0-0.973-1.071-1.284-1.353-1.284l-4.472-0.039h-13.421c-0.522,0-1.11,0.069-1.49,0.454
		c-0.454,0.415-0.454,1.036-0.454,1.595l-0.029,10.266c0,1.071,0.794,1.525,1.801,1.525h17.991c0.805,0,1.397-0.553,1.397-1.49
		L200.819,64.596 M206.125,81.965c-1.697,1.801-3.78,1.456-6.169,1.456c-1.15,0-19.038,0.034-20.252,0
		c-2.187,0-3.815,0.246-5.479-1.456c-1.697-1.732-1.283-3.885-1.283-5.06c0-0.8-0.029-11.234-0.029-12.068
		c0-1.875-0.528-4.551,1.417-6.313c1.831-1.653,4.299-1.313,6.485-1.313c0.726,0,18.198,0,19.106,0c2.809,0,4.299-0.315,6.136,1.348
		c1.767,1.668,1.387,3.781,1.353,5.864c0,0.69,0.034,10.986,0.034,11.683C207.482,77.7,207.967,79.99,206.125,81.965z"/>
	<path style="fill:#231F20;" d="M212.873,60.538v-0.923h0.765c0.321,0,0.81-0.035,0.81,0.419c0,0.425-0.267,0.514-0.646,0.504
		H212.873 M214.181,61.041c0.593-0.039,0.918-0.286,0.918-0.918c0-0.789-0.425-1.026-1.303-1.026h-1.634v3.366h0.711v-1.422h0.558
		l0.75,1.422h0.81L214.181,61.041z M213.45,63.88c1.718,0,3.119-1.397,3.119-3.104c0-1.729-1.401-3.13-3.119-3.13
		c-1.737,0-3.119,1.401-3.119,3.13C210.331,62.482,211.713,63.88,213.45,63.88z M213.45,63.145c-1.367,0-2.29-0.987-2.29-2.369
		c0-1.397,0.923-2.395,2.29-2.395c1.328,0,2.295,0.997,2.295,2.395C215.745,62.157,214.778,63.145,213.45,63.145z"/>
</g>
</svg>
